<svg width="14" height="14" viewBox="0 0 14 14" fill="none" xmlns="http://www.w3.org/2000/svg">
<g clip-path="url(#clip0_535_590)">
<path d="M6.88042 12.2498H2.91667C2.60725 12.2498 2.3105 12.1269 2.09171 11.9081C1.87292 11.6893 1.75 11.3926 1.75 11.0832V4.08317C1.75 3.77375 1.87292 3.47701 2.09171 3.25821C2.3105 3.03942 2.60725 2.9165 2.91667 2.9165H9.91667C10.2261 2.9165 10.5228 3.03942 10.7416 3.25821C10.9604 3.47701 11.0833 3.77375 11.0833 4.08317V6.41651" stroke="white" stroke-linecap="round" stroke-linejoin="round"/>
<path d="M10.5 12.8332C11.7886 12.8332 12.8333 11.7885 12.8333 10.4998C12.8333 9.21117 11.7886 8.1665 10.5 8.1665C9.2113 8.1665 8.16663 9.21117 8.16663 10.4998C8.16663 11.7885 9.2113 12.8332 10.5 12.8332Z" stroke="white" stroke-linecap="round" stroke-linejoin="round"/>
<path d="M8.75 1.75V4.08333" stroke="white" stroke-linecap="round" stroke-linejoin="round"/>
<path d="M4.08337 1.75V4.08333" stroke="white" stroke-linecap="round" stroke-linejoin="round"/>
<path d="M1.75 6.4165H11.0833" stroke="white" stroke-linecap="round" stroke-linejoin="round"/>
<path d="M10.5 9.62256V10.4999L11.0833 11.0832" stroke="white" stroke-linecap="round" stroke-linejoin="round"/>
</g>
<defs>
<clipPath id="clip0_535_590">
<rect width="14" height="14" fill="white"/>
</clipPath>
</defs>
</svg>
