<svg width="26" height="26" viewBox="0 0 26 26" fill="none" xmlns="http://www.w3.org/2000/svg">
<path d="M20.5834 10.2917H20.2367L18.8826 6.91168C18.6407 6.31071 18.2248 5.79572 17.6882 5.43283C17.1516 5.06993 16.5187 4.87568 15.8709 4.87501H9.37091C8.61831 4.87286 7.88829 5.13197 7.30545 5.60812C6.72261 6.08427 6.32309 6.74794 6.17508 7.48585L5.61175 10.2917H5.41675C4.55479 10.2917 3.72814 10.6341 3.11865 11.2436C2.50916 11.8531 2.16675 12.6797 2.16675 13.5417V16.7917C2.16675 17.079 2.28088 17.3545 2.48405 17.5577C2.68721 17.7609 2.96276 17.875 3.25008 17.875H4.33341C4.33341 18.737 4.67582 19.5636 5.28532 20.1731C5.89481 20.7826 6.72146 21.125 7.58342 21.125C8.44537 21.125 9.27202 20.7826 9.88151 20.1731C10.491 19.5636 10.8334 18.737 10.8334 17.875H15.1667C15.1667 18.737 15.5092 19.5636 16.1187 20.1731C16.7281 20.7826 17.5548 21.125 18.4167 21.125C19.2787 21.125 20.1054 20.7826 20.7148 20.1731C21.3243 19.5636 21.6667 18.737 21.6667 17.875H22.7501C23.0374 17.875 23.313 17.7609 23.5161 17.5577C23.7193 17.3545 23.8334 17.079 23.8334 16.7917V13.5417C23.8334 12.6797 23.491 11.8531 22.8815 11.2436C22.272 10.6341 21.4454 10.2917 20.5834 10.2917ZM14.0834 7.04168H15.8709C16.086 7.04363 16.2957 7.10958 16.4732 7.23112C16.6507 7.35267 16.788 7.52432 16.8676 7.72418L17.8967 10.2917H14.0834V7.04168ZM8.29841 7.90835C8.34906 7.65996 8.48521 7.43721 8.68315 7.27885C8.8811 7.1205 9.12831 7.03657 9.38175 7.04168H11.9167V10.2917H7.82175L8.29841 7.90835ZM7.58342 18.9583C7.36915 18.9583 7.1597 18.8948 6.98155 18.7758C6.80339 18.6567 6.66454 18.4875 6.58255 18.2896C6.50055 18.0916 6.4791 17.8738 6.5209 17.6637C6.5627 17.4535 6.66588 17.2605 6.81738 17.109C6.96889 16.9575 7.16192 16.8543 7.37207 16.8125C7.58221 16.7707 7.80003 16.7921 7.99799 16.8741C8.19594 16.9561 8.36514 17.095 8.48417 17.2731C8.60321 17.4513 8.66675 17.6608 8.66675 17.875C8.66675 18.1623 8.55261 18.4379 8.34945 18.641C8.14628 18.8442 7.87073 18.9583 7.58342 18.9583ZM18.4167 18.9583C18.2025 18.9583 17.993 18.8948 17.8149 18.7758C17.6367 18.6567 17.4979 18.4875 17.4159 18.2896C17.3339 18.0916 17.3124 17.8738 17.3542 17.6637C17.396 17.4535 17.4992 17.2605 17.6507 17.109C17.8022 16.9575 17.9953 16.8543 18.2054 16.8125C18.4155 16.7707 18.6334 16.7921 18.8313 16.8741C19.0293 16.9561 19.1985 17.095 19.3175 17.2731C19.4365 17.4513 19.5001 17.6608 19.5001 17.875C19.5001 18.1623 19.3859 18.4379 19.1828 18.641C18.9796 18.8442 18.7041 18.9583 18.4167 18.9583ZM21.6667 15.7083H20.8217C20.5171 15.3732 20.1458 15.1054 19.7317 14.9222C19.3175 14.739 18.8696 14.6443 18.4167 14.6443C17.9639 14.6443 17.516 14.739 17.1018 14.9222C16.6877 15.1054 16.3164 15.3732 16.0117 15.7083H9.98842C9.6838 15.3732 9.31251 15.1054 8.89835 14.9222C8.48419 14.739 8.0363 14.6443 7.58342 14.6443C7.13053 14.6443 6.68264 14.739 6.26848 14.9222C5.85432 15.1054 5.48303 15.3732 5.17842 15.7083H4.33341V13.5417C4.33341 13.2544 4.44755 12.9788 4.65072 12.7756C4.85388 12.5725 5.12943 12.4583 5.41675 12.4583H20.5834C20.8707 12.4583 21.1463 12.5725 21.3494 12.7756C21.5526 12.9788 21.6667 13.2544 21.6667 13.5417V15.7083Z" fill="#04091E"/>
</svg>
