<svg width="44" height="37" viewBox="0 0 44 37" fill="none" xmlns="http://www.w3.org/2000/svg">
<g opacity="0.3">
<ellipse cx="20.9129" cy="16.2531" rx="16.087" ry="16.1027" fill="#34CAA5"/>
<ellipse cx="2.41304" cy="2.56579" rx="2.41304" ry="2.4154" fill="#34CAA5"/>
</g>
<path d="M20 10.3332H36C38.9455 10.3332 41.3333 12.721 41.3333 15.6665V22.3332C41.3333 25.2787 38.9455 27.6665 36 27.6665H25.3333C22.3878 27.6665 20 25.2787 20 22.3332V10.3332ZM20 10.3332C20 8.86041 18.8061 7.6665 17.3333 7.6665H14.6666" stroke="#34CAA5" stroke-width="2" stroke-linecap="round" stroke-linejoin="round"/>
<path d="M26.6666 32.3335C26.6666 33.4381 25.7712 34.3335 24.6666 34.3335C23.5621 34.3335 22.6666 33.4381 22.6666 32.3335C22.6666 31.2289 23.5621 30.3335 24.6666 30.3335C25.7712 30.3335 26.6666 31.2289 26.6666 32.3335Z" stroke="#34CAA5" stroke-width="2"/>
<path d="M38.6666 32.3335C38.6666 33.4381 37.7712 34.3335 36.6666 34.3335C35.5621 34.3335 34.6666 33.4381 34.6666 32.3335C34.6666 31.2289 35.5621 30.3335 36.6666 30.3335C37.7712 30.3335 38.6666 31.2289 38.6666 32.3335Z" stroke="#34CAA5" stroke-width="2"/>
<path d="M26.6666 21C29.8082 22.7871 31.5301 22.7684 34.6666 21" stroke="#34CAA5" stroke-width="2" stroke-linecap="round" stroke-linejoin="round"/>
</svg>
