<svg width="20" height="20" viewBox="0 0 20 20" fill="none" xmlns="http://www.w3.org/2000/svg">
<g clip-path="url(#clip0_518_523)">
<path d="M8.295 1.84176C9.4191 1.60604 10.5798 1.60547 11.7042 1.8401C11.7791 2.3345 11.9644 2.80567 12.2465 3.21858C12.5285 3.63149 12.9 3.97552 13.3333 4.2251C13.7663 4.47554 14.2501 4.62515 14.7489 4.66281C15.2477 4.70046 15.7485 4.62519 16.2142 4.4426C16.9794 5.29931 17.5591 6.30513 17.9167 7.39676C17.5261 7.70891 17.2109 8.10506 16.9945 8.55576C16.7781 9.00646 16.6661 9.50013 16.6667 10.0001C16.6667 11.0534 17.155 11.9926 17.9183 12.6034C17.5586 13.6942 16.9782 14.6992 16.2133 15.5559C15.7478 15.3735 15.2471 15.2983 14.7485 15.3359C14.2499 15.3736 13.7662 15.5231 13.3333 15.7734C12.9004 16.0229 12.5292 16.3667 12.2473 16.7793C11.9654 17.1919 11.78 17.6627 11.705 18.1568C10.581 18.393 9.42028 18.3942 8.29583 18.1601C8.22129 17.6652 8.03609 17.1936 7.75402 16.7802C7.47195 16.3669 7.10027 16.0224 6.66666 15.7726C6.23363 15.5223 5.74975 15.3728 5.25099 15.3353C4.75223 15.2978 4.25143 15.3732 3.78583 15.5559C3.0205 14.699 2.44084 13.6929 2.08333 12.6009C2.47366 12.289 2.78871 11.8931 3.00511 11.4427C3.22151 10.9923 3.33369 10.4989 3.33333 9.99926C3.33374 9.49916 3.22142 9.00541 3.00472 8.55469C2.78802 8.10398 2.47252 7.70791 2.08167 7.39593C2.44139 6.3052 3.02176 5.30018 3.78667 4.44343C4.25221 4.6259 4.75289 4.7011 5.25149 4.66344C5.7501 4.62579 6.2338 4.47624 6.66666 4.22593C7.09962 3.97643 7.47082 3.63262 7.75271 3.22002C8.03461 2.80742 8.21996 2.33663 8.295 1.8426V1.84176ZM10 12.5001C10.663 12.5001 11.2989 12.2367 11.7678 11.7679C12.2366 11.299 12.5 10.6631 12.5 10.0001C12.5 9.33706 12.2366 8.70117 11.7678 8.23233C11.2989 7.76349 10.663 7.5001 10 7.5001C9.33696 7.5001 8.70107 7.76349 8.23223 8.23233C7.76339 8.70117 7.5 9.33706 7.5 10.0001C7.5 10.6631 7.76339 11.299 8.23223 11.7679C8.70107 12.2367 9.33696 12.5001 10 12.5001Z" fill="#3F435C"/>
<circle cx="10" cy="10" r="2.5" fill="#34CAA5"/>
</g>
<defs>
<clipPath id="clip0_518_523">
<rect width="20" height="20" fill="white"/>
</clipPath>
</defs>
</svg>
