<svg width="45" height="38" viewBox="0 0 45 38" fill="none" xmlns="http://www.w3.org/2000/svg">
<g opacity="0.3">
<ellipse cx="20.9129" cy="16.2531" rx="16.087" ry="16.1027" fill="#34CAA5"/>
<ellipse cx="2.41304" cy="2.56579" rx="2.41304" ry="2.4154" fill="#34CAA5"/>
</g>
<path d="M23.6907 24.2099C23.6907 25.9409 25.0178 27.3365 26.6668 27.3365H30.0316C31.466 27.3365 32.6323 26.1154 32.6323 24.6125C32.6323 22.9754 31.9218 22.3983 30.8628 22.0226L25.4602 20.144C24.4012 19.7682 23.6907 19.1912 23.6907 17.5541C23.6907 16.0512 24.857 14.8301 26.2914 14.8301H29.6563C31.3052 14.8301 32.6323 16.2256 32.6323 17.9567" stroke="#34CAA5" stroke-width="2" stroke-linecap="round" stroke-linejoin="round"/>
<path d="M28.1522 13.0322V29.1349" stroke="#34CAA5" stroke-width="2" stroke-linecap="round" stroke-linejoin="round"/>
<path d="M28.1523 34.5024C35.5561 34.5024 41.5581 28.4945 41.5581 21.0835C41.5581 13.6724 35.5561 7.66455 28.1523 7.66455C20.7484 7.66455 14.7465 13.6724 14.7465 21.0835C14.7465 28.4945 20.7484 34.5024 28.1523 34.5024Z" stroke="#34CAA5" stroke-width="2" stroke-linecap="round" stroke-linejoin="round"/>
</svg>
