<svg width="20" height="21" viewBox="0 0 20 21" fill="none" xmlns="http://www.w3.org/2000/svg">
<g opacity="0.54">
<path d="M11.6667 10.1681C11.6667 11.0895 10.9205 11.8364 10 11.8364C9.07957 11.8364 8.33337 11.0895 8.33337 10.1681C8.33337 9.24677 9.07957 8.49984 10 8.49984C10.9205 8.49984 11.6667 9.24677 11.6667 10.1681Z" stroke="#04091E" stroke-width="1.5"/>
<path d="M11.6667 3.49496C11.6667 4.41633 10.9205 5.16325 10 5.16325C9.07957 5.16325 8.33337 4.41633 8.33337 3.49496C8.33337 2.57358 9.07957 1.82666 10 1.82666C10.9205 1.82666 11.6667 2.57358 11.6667 3.49496Z" stroke="#04091E" stroke-width="1.5"/>
<path d="M11.6667 16.8413C11.6667 17.7627 10.9205 18.5096 10 18.5096C9.07957 18.5096 8.33337 17.7627 8.33337 16.8413C8.33337 15.9199 9.07957 15.173 10 15.173C10.9205 15.173 11.6667 15.9199 11.6667 16.8413Z" stroke="#04091E" stroke-width="1.5"/>
</g>
</svg>
