<svg width="11" height="15" viewBox="0 0 11 15" fill="none" xmlns="http://www.w3.org/2000/svg">
<path d="M0.659263 5.93177H9.88641C10.0649 5.93177 10.2194 5.86659 10.3498 5.73612C10.4802 5.60569 10.5456 5.45124 10.5456 5.27273C10.5456 5.09422 10.4802 4.93984 10.3498 4.80923L5.73624 0.195643C5.60589 0.0653586 5.45147 0 5.27285 0C5.09424 0 4.93982 0.0653586 4.80936 0.195643L0.195765 4.80923C0.0653004 4.9397 0.00012207 5.09422 0.00012207 5.27273C0.00012207 5.45121 0.0653004 5.60569 0.195765 5.73612C0.326374 5.86659 0.48079 5.93177 0.659263 5.93177Z" fill="#747681"/>
<path d="M9.88641 8.56836H0.659263C0.480645 8.56836 0.32623 8.63357 0.195765 8.76389C0.0653004 8.89436 0.00012207 9.04877 0.00012207 9.22728C0.00012207 9.40579 0.0653004 9.56032 0.195765 9.69071L4.80936 14.3042C4.93997 14.4347 5.09438 14.5 5.27285 14.5C5.45133 14.5 5.60589 14.4347 5.73624 14.3042L10.3498 9.69067C10.4802 9.56032 10.5456 9.40579 10.5456 9.22725C10.5456 9.04877 10.4802 8.89436 10.3498 8.76386C10.2195 8.63343 10.0649 8.56836 9.88641 8.56836Z" fill="#747681"/>
</svg>
