<svg width="24" height="24" viewBox="0 0 24 24" fill="none" xmlns="http://www.w3.org/2000/svg">
<g clip-path="url(#clip0_972_13221)">
<path d="M12.4827 13.8962L10.7434 17.626C10.5287 18.066 10.1515 18.4055 9.69137 18.573C9.23126 18.7404 8.72411 18.7228 8.27674 18.5238C8.05549 18.4211 7.8567 18.2758 7.69175 18.0962C7.5268 17.9165 7.39895 17.7061 7.31554 17.4769C7.23212 17.2477 7.19478 17.0043 7.20566 16.7607C7.21654 16.517 7.27543 16.2779 7.37893 16.0571L9.11816 12.3273C9.20257 12.1463 9.21161 11.9391 9.1433 11.7515C9.07499 11.5638 8.93492 11.4109 8.75391 11.3265C8.5729 11.2421 8.36577 11.2331 8.17808 11.3014C7.9904 11.3697 7.83754 11.5098 7.75314 11.6908L6.01647 15.4276C5.68384 16.2277 5.67317 17.1254 5.9867 17.9332C6.30023 18.741 6.91372 19.3964 7.69904 19.7626C8.48436 20.1288 9.3808 20.1775 10.2011 19.8984C11.0215 19.6194 11.7023 19.0342 12.1014 18.2651L13.8477 14.5327C13.9321 14.3517 13.9411 14.1446 13.8728 13.9569C13.8045 13.7692 13.6644 13.6163 13.4834 13.5319C13.3024 13.4475 13.0953 13.4385 12.9076 13.5068C12.7199 13.5751 12.5671 13.7152 12.4827 13.8962ZM15.4309 3.18166C14.6236 2.80827 13.7013 2.76944 12.8655 3.07366C12.0296 3.37788 11.3481 4.00044 10.9697 4.8054L9.22341 8.53775C9.18162 8.62738 9.15788 8.72437 9.15357 8.82317C9.14926 8.92197 9.16445 9.02065 9.19827 9.11358C9.23209 9.20651 9.28389 9.29187 9.3507 9.36478C9.41751 9.43769 9.49803 9.49673 9.58766 9.53853C9.67729 9.58032 9.77427 9.60405 9.87307 9.60837C9.97187 9.61268 10.0706 9.59749 10.1635 9.56367C10.2564 9.52984 10.3418 9.47805 10.4147 9.41123C10.4876 9.34442 10.5466 9.2639 10.5884 9.17427L12.3277 5.44449C12.5424 5.00447 12.9196 4.66497 13.3797 4.4975C13.8398 4.33003 14.347 4.34767 14.7944 4.54669C15.0156 4.64932 15.2144 4.79464 15.3793 4.97429C15.5443 5.15394 15.6721 5.36439 15.7556 5.59357C15.839 5.82276 15.8763 6.06615 15.8654 6.3098C15.8545 6.55345 15.7957 6.79255 15.6922 7.01338L13.9529 10.7432C13.9107 10.8327 13.8867 10.9298 13.8821 11.0287C13.8776 11.1276 13.8927 11.2264 13.9266 11.3194C13.9605 11.4125 14.0124 11.4979 14.0794 11.5707C14.1465 11.6436 14.2273 11.7025 14.3172 11.7439C14.4067 11.7861 14.5038 11.8102 14.6027 11.8147C14.7016 11.8193 14.8004 11.8041 14.8934 11.7703C14.9865 11.7364 15.0719 11.6845 15.1448 11.6174C15.2176 11.5504 15.2765 11.4696 15.318 11.3797L17.0546 7.64285C17.428 6.83554 17.4668 5.91329 17.1626 5.07745C16.8584 4.24161 16.2358 3.56009 15.4309 3.18166ZM10.1146 14.5825C10.2042 14.6238 10.3011 14.6471 10.3997 14.6509C10.4984 14.6547 10.5968 14.6391 10.6894 14.6048C10.7823 14.5715 10.8678 14.5203 10.9409 14.454C11.014 14.3876 11.0733 14.3075 11.1154 14.2182L13.3208 9.48873C13.4052 9.30771 13.4142 9.10058 13.3459 8.9129C13.2776 8.72522 13.1375 8.57236 12.9565 8.48795C12.7755 8.40355 12.5684 8.3945 12.3807 8.46281C12.193 8.53112 12.0401 8.67119 11.9557 8.85221L9.75033 13.5817C9.70812 13.6713 9.68406 13.7683 9.67954 13.8672C9.67501 13.9661 9.69012 14.065 9.72398 14.158C9.75785 14.251 9.8098 14.3364 9.87684 14.4093C9.94387 14.4822 10.0247 14.541 10.1146 14.5825Z" fill="#34CC9C"/>
</g>
<defs>
<clipPath id="clip0_972_13221">
<rect width="18" height="18" fill="white" transform="translate(0.00012207 6.15625) rotate(-20)"/>
</clipPath>
</defs>
</svg>
