<svg width="25" height="24" viewBox="0 0 25 24" fill="none" xmlns="http://www.w3.org/2000/svg">
<g clip-path="url(#clip0_857_6091)">
<path d="M5.33398 21V5C5.33398 4.46957 5.5447 3.96086 5.91977 3.58579C6.29484 3.21071 6.80355 3 7.33398 3H17.334C17.8644 3 18.3731 3.21071 18.7482 3.58579C19.1233 3.96086 19.334 4.46957 19.334 5V21L16.334 19L14.334 21L12.334 19L10.334 21L8.33398 19L5.33398 21Z" stroke="#2C3E50" stroke-width="2" stroke-linecap="round" stroke-linejoin="round"/>
<path d="M14.334 8H11.834C11.4362 8 11.0546 8.15804 10.7733 8.43934C10.492 8.72064 10.334 9.10218 10.334 9.5C10.334 9.89782 10.492 10.2794 10.7733 10.5607C11.0546 10.842 11.4362 11 11.834 11H12.834C13.2318 11 13.6133 11.158 13.8946 11.4393C14.176 11.7206 14.334 12.1022 14.334 12.5C14.334 12.8978 14.176 13.2794 13.8946 13.5607C13.6133 13.842 13.2318 14 12.834 14H10.334M12.334 14V15.5M12.334 6.5V8" stroke="#2C3E50" stroke-width="2" stroke-linecap="round" stroke-linejoin="round"/>
</g>
<defs>
<clipPath id="clip0_857_6091">
<rect width="24" height="24" fill="white" transform="translate(0.333984)"/>
</clipPath>
</defs>
</svg>
