<svg width="20" height="20" viewBox="0 0 20 20" fill="none" xmlns="http://www.w3.org/2000/svg">
<path d="M3.33337 16.2427V3.33317C3.33337 2.4127 4.07957 1.6665 5.00004 1.6665H15C15.9205 1.6665 16.6667 2.4127 16.6667 3.33317L16.6667 16.2427C16.6667 17.2839 15.4684 17.8687 14.6476 17.2281L11.0255 13.9304C10.4228 13.46 9.57731 13.46 8.97461 13.9304L5.35245 17.2281C4.53168 17.8687 3.33337 17.2839 3.33337 16.2427Z" fill="#3F435C"/>
<path d="M5.00004 1.6665H15C15.9205 1.6665 16.6667 2.4127 16.6667 3.33317V5.83317H3.33337V3.33317C3.33337 2.4127 4.07957 1.6665 5.00004 1.6665Z" fill="#34CAA5"/>
</svg>
