<svg width="20" height="20" viewBox="0 0 20 20" fill="none" xmlns="http://www.w3.org/2000/svg">
<path d="M10 18.3332C11.1542 18.3332 12.1361 17.6375 12.5 16.6665H7.5C7.8639 17.6375 8.84581 18.3332 10 18.3332Z" fill="#34CAA5"/>
<path d="M5.18572 15.8333H14.8144C16.338 15.8333 17.2077 14.3007 16.2936 13.2268C15.8888 12.7513 15.6394 12.1874 15.5723 11.596L15.1997 8.31265C14.9987 6.54219 13.677 5.08933 11.8917 4.47805V4.39162C11.8917 3.34691 11.0448 2.5 10 2.5C8.95533 2.5 8.10842 3.34691 8.10842 4.39162V4.47805C6.32309 5.08933 5.00137 6.54219 4.80043 8.31266L4.42777 11.596C4.36065 12.1874 4.11124 12.7513 3.70653 13.2268C2.79234 14.3007 3.66207 15.8333 5.18572 15.8333Z" fill="#3F435C"/>
</svg>
