<svg width="20" height="20" viewBox="0 0 20 20" fill="none" xmlns="http://www.w3.org/2000/svg">
<path d="M1.28198 3.01237C1.28198 2.09189 2.02817 1.3457 2.94865 1.3457H7.05143C7.9719 1.3457 8.71809 2.0919 8.71809 3.01237V7.11515C8.71809 8.03562 7.9719 8.78182 7.05143 8.78182H2.94865C2.02817 8.78182 1.28198 8.03562 1.28198 7.11515V3.01237Z" fill="#34CAA5"/>
<path d="M11.2181 12.9484C11.2181 12.0279 11.9643 11.2817 12.8848 11.2817H16.9876C17.9081 11.2817 18.6543 12.0279 18.6543 12.9484V17.0512C18.6543 17.9717 17.9081 18.7179 16.9876 18.7179H12.8848C11.9643 18.7179 11.2181 17.9717 11.2181 17.0512V12.9484Z" fill="#34CAA5"/>
<circle opacity="0.4" cx="14.9362" cy="5.06376" r="3.71805" fill="#34CAA5"/>
<circle cx="5.00004" cy="14.9998" r="3.71805" fill="#34CAA5"/>
</svg>
