<svg width="20" height="20" viewBox="0 0 20 20" fill="none" xmlns="http://www.w3.org/2000/svg">
<path d="M1.28198 3.01249C1.28198 2.09202 2.02817 1.34583 2.94865 1.34583H7.05143C7.9719 1.34583 8.71809 2.09202 8.71809 3.01249V7.11527C8.71809 8.03575 7.9719 8.78194 7.05143 8.78194H2.94865C2.02817 8.78194 1.28198 8.03575 1.28198 7.11527V3.01249Z" fill="#3F435C"/>
<path d="M11.2181 12.9486C11.2181 12.0281 11.9643 11.2819 12.8848 11.2819H16.9876C17.9081 11.2819 18.6543 12.0281 18.6543 12.9486V17.0514C18.6543 17.9719 17.9081 18.718 16.9876 18.718H12.8848C11.9643 18.718 11.2181 17.9719 11.2181 17.0514V12.9486Z" fill="#3F435C"/>
<circle opacity="0.4" cx="14.9362" cy="5.06388" r="3.71805" fill="#34CC9C"/>
<circle cx="5.00004" cy="15" r="3.71805" fill="#34CC9C"/>
</svg>
