<svg width="20" height="20" viewBox="0 0 20 20" fill="none" xmlns="http://www.w3.org/2000/svg">
<path d="M3.33325 16.2427V3.33317C3.33325 2.4127 4.07944 1.6665 4.99992 1.6665H14.9999C15.9204 1.6665 16.6666 2.4127 16.6666 3.33317L16.6666 16.2427C16.6666 17.2839 15.4683 17.8687 14.6475 17.2281L11.0253 13.9304C10.4226 13.46 9.57719 13.46 8.97449 13.9304L5.35232 17.2281C4.53156 17.8687 3.33325 17.2839 3.33325 16.2427Z" fill="#34CC9C"/>
<path d="M4.99992 1.6665H14.9999C15.9204 1.6665 16.6666 2.4127 16.6666 3.33317V5.83317H3.33325V3.33317C3.33325 2.4127 4.07944 1.6665 4.99992 1.6665Z" fill="#91FFC5"/>
</svg>
