<svg width="20" height="20" viewBox="0 0 20 20" fill="none" xmlns="http://www.w3.org/2000/svg">
<path opacity="0.4" d="M10 18.3331C11.1542 18.3331 12.1361 17.6375 12.5 16.6665H7.5C7.8639 17.6375 8.84581 18.3331 10 18.3331Z" fill="#34CC9C"/>
<path d="M5.18572 15.8331H14.8144C16.338 15.8331 17.2077 14.3005 16.2936 13.2266C15.8888 12.7511 15.6394 12.1872 15.5723 11.5959L15.1997 8.31247C14.9987 6.54201 13.677 5.08914 11.8917 4.47787V4.39144C11.8917 3.34672 11.0448 2.49982 10 2.49982C8.95533 2.49982 8.10842 3.34672 8.10842 4.39144V4.47787C6.32309 5.08914 5.00137 6.54201 4.80043 8.31247L4.42777 11.5959C4.36065 12.1872 4.11124 12.7511 3.70653 13.2266C2.79234 14.3005 3.66207 15.8331 5.18572 15.8331Z" fill="#34CC9C"/>
</svg>
