<svg width="20" height="20" viewBox="0 0 20 20" fill="none" xmlns="http://www.w3.org/2000/svg">
<g clip-path="url(#clip0_898_5981)">
<path d="M4.16667 14.1667H2.5V9.16667L4.16667 5H11.6667L15 9.16667H15.8333C16.2754 9.16667 16.6993 9.34226 17.0118 9.65482C17.3244 9.96738 17.5 10.3913 17.5 10.8333V14.1667H15.8333M12.5 14.1667H7.5H12.5ZM2.5 9.16667H15H2.5ZM10 9.16667V5V9.16667Z" fill="#3F435C"/>
<path d="M4.16667 14.1667H2.5V9.16667M2.5 9.16667L4.16667 5H11.6667L15 9.16667M2.5 9.16667H15M15 9.16667H15.8333C16.2754 9.16667 16.6993 9.34226 17.0118 9.65482C17.3244 9.96738 17.5 10.3913 17.5 10.8333V14.1667H15.8333M12.5 14.1667H7.5M10 9.16667V5" stroke="#3F435C" stroke-width="2.75" stroke-linecap="round" stroke-linejoin="round"/>
<path d="M5.83341 17.2425C7.03003 17.2425 8.00008 16.2725 8.00008 15.0758C8.00008 13.8792 7.03003 12.9092 5.83341 12.9092C4.6368 12.9092 3.66675 13.8792 3.66675 15.0758C3.66675 16.2725 4.6368 17.2425 5.83341 17.2425Z" fill="#3F435C" stroke="white" stroke-linecap="round" stroke-linejoin="round"/>
<path d="M14.1667 17.2425C15.3633 17.2425 16.3333 16.2725 16.3333 15.0758C16.3333 13.8792 15.3633 12.9092 14.1667 12.9092C12.97 12.9092 12 13.8792 12 15.0758C12 16.2725 12.97 17.2425 14.1667 17.2425Z" fill="#3F435C" stroke="white" stroke-linecap="round" stroke-linejoin="round"/>
<path d="M7.63643 5.68164H5.37009C5.00221 5.68164 4.66403 5.88363 4.48962 6.20754L3.97563 7.16209C3.61689 7.82832 4.09943 8.63619 4.8561 8.63619H7.63643C8.18871 8.63619 8.63643 8.18847 8.63643 7.63619V6.68164C8.63643 6.12936 8.18872 5.68164 7.63643 5.68164Z" fill="#34CAA5"/>
<path d="M11.3262 5.68164H10.5459C9.99361 5.68164 9.5459 6.12936 9.5459 6.68164V7.63619C9.5459 8.18847 9.99361 8.63619 10.5459 8.63619H12.0605C12.8902 8.63619 13.359 7.68409 12.8531 7.02647L12.1188 6.07193C11.9296 5.82584 11.6367 5.68164 11.3262 5.68164Z" fill="#34CAA5"/>
</g>
<defs>
<clipPath id="clip0_898_5981">
<rect width="20" height="20" fill="white"/>
</clipPath>
</defs>
</svg>
