<svg width="20" height="20" viewBox="0 0 20 20" fill="none" xmlns="http://www.w3.org/2000/svg">
<path d="M18.3333 15.8335V13.3335C18.3333 11.9528 17.214 10.8335 15.8333 10.8335H15C14.4754 10.8335 13.9814 11.0805 13.6666 11.5002L12.6666 12.8335C12.0371 13.6728 11.0492 14.1668 9.99996 14.1668C8.95077 14.1668 7.96281 13.6728 7.33329 12.8335L6.33329 11.5002C6.01854 11.0805 5.52455 10.8335 4.99996 10.8335H4.16663C2.78591 10.8335 1.66663 11.9528 1.66663 13.3335V15.8335C1.66663 17.2142 2.78591 18.3335 4.16663 18.3335H15.8333C17.214 18.3335 18.3333 17.2142 18.3333 15.8335Z" fill="#3F435C"/>
<path fill-rule="evenodd" clip-rule="evenodd" d="M4.16671 10.8332H5.00004C5.52464 10.8332 6.01862 11.0802 6.33337 11.4998L7.33337 12.8332C7.96289 13.6725 8.95085 14.1665 10 14.1665C11.0492 14.1665 12.0372 13.6725 12.6667 12.8332L13.6667 11.4998C13.9815 11.0802 14.4754 10.8332 15 10.8332H15.8334C16.1256 10.8332 16.4061 10.8833 16.6667 10.9754V4.99984C16.6667 3.15889 15.1743 1.6665 13.3334 1.6665H6.66671C4.82576 1.6665 3.33337 3.15889 3.33337 4.99984V10.9754C3.59402 10.8833 3.87451 10.8332 4.16671 10.8332ZM12.5 8.12484C12.8452 8.12484 13.125 7.84502 13.125 7.49984C13.125 7.15466 12.8452 6.87484 12.5 6.87484H7.50004C7.15486 6.87484 6.87504 7.15466 6.87504 7.49984C6.87504 7.84502 7.15486 8.12484 7.50004 8.12484H12.5Z" fill="#34CAA5"/>
</svg>
