<svg width="20" height="20" viewBox="0 0 20 20" fill="none" xmlns="http://www.w3.org/2000/svg">
<path d="M1.66663 8.33333C1.66663 6.49238 3.15901 5 4.99996 5H15C16.8409 5 18.3333 6.49238 18.3333 8.33333V15C18.3333 16.841 16.8409 18.3333 15 18.3333H4.99996C3.15901 18.3333 1.66663 16.841 1.66663 15V8.33333Z" fill="#3F435C"/>
<path fill-rule="evenodd" clip-rule="evenodd" d="M9.16663 2.2915C8.13109 2.2915 7.29163 3.13097 7.29163 4.1665V5.83317C7.29163 6.17835 7.0118 6.45817 6.66663 6.45817C6.32145 6.45817 6.04163 6.17835 6.04163 5.83317V4.1665C6.04163 2.44061 7.44074 1.0415 9.16663 1.0415H10.8333C12.5592 1.0415 13.9583 2.44061 13.9583 4.1665V5.83317C13.9583 6.17835 13.6785 6.45817 13.3333 6.45817C12.9881 6.45817 12.7083 6.17835 12.7083 5.83317V4.1665C12.7083 3.13097 11.8688 2.2915 10.8333 2.2915H9.16663Z" fill="#34CAA5"/>
<path d="M15 5H4.99996C3.15901 5 1.66663 6.49238 1.66663 8.33333V10.8333H18.3333V8.33333C18.3333 6.49238 16.8409 5 15 5Z" fill="#3F435C"/>
<path d="M11.6666 10.8332C11.6666 11.7536 10.9204 12.4998 9.99992 12.4998C9.07944 12.4998 8.33325 11.7536 8.33325 10.8332C8.33325 9.9127 9.07944 9.1665 9.99992 9.1665C10.9204 9.1665 11.6666 9.9127 11.6666 10.8332Z" fill="#34CAA5"/>
</svg>
