<svg width="20" height="21" viewBox="0 0 20 21" fill="none" xmlns="http://www.w3.org/2000/svg">
<path d="M15.4316 3.52246L14.4444 3.52246L10.5555 3.52246L9.56835 3.52246C8.28203 3.52246 7.48058 4.91782 8.12871 6.02891L11.0603 11.0545C11.7035 12.157 13.2965 12.157 13.9396 11.0545L16.8712 6.02891C17.5193 4.91782 16.7179 3.52246 15.4316 3.52246Z" fill="#34CAA5"/>
<path opacity="0.4" d="M4.16915 16.0483L5.15631 16.0483L9.0452 16.0483L10.0324 16.0483C11.3187 16.0483 12.1201 14.653 11.472 13.5419L8.54039 8.51628C7.89726 7.41377 6.30425 7.41377 5.66113 8.51628L2.72952 13.5419C2.08138 14.653 2.88283 16.0483 4.16915 16.0483Z" fill="#34CAA5"/>
</svg>
