<svg width="24" height="24" viewBox="0 0 24 24" fill="none" xmlns="http://www.w3.org/2000/svg">
<path d="M12 12.0002C11.8022 12.0002 11.6088 12.0589 11.4444 12.1688C11.2799 12.2787 11.1518 12.4348 11.0761 12.6176C11.0004 12.8003 10.9806 13.0013 11.0192 13.1953C11.0578 13.3893 11.153 13.5675 11.2928 13.7073C11.4327 13.8472 11.6109 13.9424 11.8049 13.981C11.9988 14.0196 12.1999 13.9998 12.3826 13.9241C12.5654 13.8484 12.7215 13.7203 12.8314 13.5558C12.9413 13.3914 13 13.198 13 13.0002C13 12.735 12.8946 12.4807 12.7071 12.2931C12.5195 12.1056 12.2652 12.0002 12 12.0002ZM21.7099 9.64024C21.168 7.47797 19.9192 5.55876 18.1618 4.18743C16.4043 2.8161 14.2391 2.07129 12.01 2.07129C9.78081 2.07129 7.61557 2.8161 5.85814 4.18743C4.10071 5.55876 2.85187 7.47797 2.30995 9.64024C1.92338 11.1898 1.92338 12.8107 2.30995 14.3602C2.74125 16.1333 3.64948 17.7545 4.93625 19.0484C6.22302 20.3422 7.83928 21.2593 9.60995 21.7002C11.1528 22.0868 12.7671 22.0868 14.31 21.7002C16.0787 21.2633 17.6945 20.3514 18.9828 19.0631C20.2712 17.7748 21.183 16.159 21.62 14.3902C22.0065 12.8407 22.0065 11.2198 21.62 9.67024L21.7099 9.64024ZM12 4.00024C13.5925 4.00147 15.1484 4.47797 16.4685 5.36872C17.7886 6.25947 18.8128 7.52394 19.41 9.00024H4.58995C5.18714 7.52394 6.21135 6.25947 7.53144 5.36872C8.85154 4.47797 10.4074 4.00147 12 4.00024ZM3.99995 12.0002C4.00302 11.6658 4.02639 11.3318 4.06995 11.0002H5.99995V13.0002H4.06995C4.02639 12.6686 4.00302 12.3347 3.99995 12.0002ZM8.99995 19.4102C8.00704 19.0079 7.10505 18.4102 6.34751 17.6527C5.58996 16.8951 4.99229 15.9932 4.58995 15.0002H6.99995C7.53038 15.0002 8.03909 15.211 8.41416 15.586C8.78924 15.9611 8.99995 16.4698 8.99995 17.0002V19.4102ZM13 19.9302C12.6683 19.9738 12.3344 19.9972 12 20.0002C11.6655 19.9972 11.3316 19.9738 11 19.9302V18.0002H13V19.9302ZM13.14 16.0002H10.86C10.6804 15.3124 10.3208 14.6848 9.81807 14.1821C9.31538 13.6794 8.68781 13.3198 7.99995 13.1402V11.0002H16V13.1402C15.3121 13.3198 14.6845 13.6794 14.1818 14.1821C13.6791 14.6848 13.3195 15.3124 13.14 16.0002ZM15 19.4102V17.0002C15 16.4698 15.2107 15.9611 15.5857 15.586C15.9608 15.211 16.4695 15.0002 17 15.0002H19.41C19.0076 15.9932 18.4099 16.8951 17.6524 17.6527C16.8948 18.4102 15.9929 19.0079 15 19.4102ZM19.93 13.0002H18V11.0002H19.93C19.9735 11.3318 19.9969 11.6658 20 12.0002C19.9969 12.3347 19.9735 12.6686 19.93 13.0002Z" fill="#111827"/>
</svg>
