<svg width="44" height="37" viewBox="0 0 44 37" fill="none" xmlns="http://www.w3.org/2000/svg">
<g opacity="0.3">
<ellipse cx="20.9129" cy="16.2531" rx="16.087" ry="16.1027" fill="#34CAA5"/>
<ellipse cx="2.41304" cy="2.56579" rx="2.41304" ry="2.4154" fill="#34CAA5"/>
</g>
<path d="M33.6568 19.1143C32.6154 20.1557 30.9269 20.1557 29.8855 19.1143C28.8441 18.0729 28.8441 16.3845 29.8855 15.3431C30.9269 14.3017 32.6154 14.3017 33.6568 15.3431C34.6982 16.3845 34.6982 18.0729 33.6568 19.1143Z" stroke="#34CAA5" stroke-width="1.5"/>
<path d="M24.5486 11.2523C25.6645 10.1364 27.2057 9.55731 28.7678 9.66698L34.0536 10.0381C36.6928 10.2234 38.7768 12.3074 38.9621 14.9467L39.3332 20.2324C39.4429 21.7945 38.8638 23.3357 37.7479 24.4516L28.9941 33.2054C26.883 35.3166 23.4831 35.3395 21.4003 33.2567L15.7435 27.5999C13.6607 25.5171 13.6837 22.1172 15.7948 20.0061L24.5486 11.2523Z" stroke="#34CAA5" stroke-width="1.5" stroke-linejoin="round"/>
</svg>
