<svg width="24" height="24" viewBox="0 0 24 24" fill="none" xmlns="http://www.w3.org/2000/svg">
<g clip-path="url(#clip0_857_6965)">
<path d="M7.00044 16C5.75272 16 4.5561 15.5259 3.67383 14.682C2.79155 13.838 2.2959 12.6934 2.2959 11.5C2.2959 10.3065 2.79155 9.16191 3.67383 8.31799C4.5561 7.47408 5.75272 6.99997 7.00044 6.99997C7.29513 5.68715 8.15721 4.53345 9.39703 3.79269C10.6369 3.05192 12.1529 2.78475 13.6116 3.04997C15.0702 3.31519 16.3521 4.09106 17.1752 5.2069C17.9983 6.32274 18.2951 7.68715 18.0004 8.99997H19.0004C19.9287 8.99997 20.8189 9.36872 21.4753 10.0251C22.1317 10.6815 22.5004 11.5717 22.5004 12.5C22.5004 13.4282 22.1317 14.3185 21.4753 14.9748C20.8189 15.6312 19.9287 16 19.0004 16H7.00044Z" stroke="#2C3E50" stroke-width="2" stroke-linecap="round" stroke-linejoin="round"/>
<path d="M5 20H19" stroke="#2C3E50" stroke-width="2" stroke-linecap="round" stroke-linejoin="round"/>
</g>
<defs>
<clipPath id="clip0_857_6965">
<rect width="24" height="24" fill="white"/>
</clipPath>
</defs>
</svg>
