<svg width="23" height="22" viewBox="0 0 23 22" fill="none" xmlns="http://www.w3.org/2000/svg">
<path d="M20.8759 11.2139C20.8759 10.4225 20.8104 9.84497 20.6686 9.24609H11.4474V12.818H16.86C16.751 13.7057 16.1617 15.0425 14.8521 15.9408L14.8338 16.0603L17.7493 18.2738L17.9513 18.2936C19.8065 16.6145 20.8759 14.1441 20.8759 11.2139Z" fill="#4285F4"/>
<path d="M11.4468 20.6248C14.0985 20.6248 16.3247 19.7692 17.9507 18.2934L14.8515 15.9405C14.0222 16.5073 12.909 16.903 11.4468 16.903C8.84958 16.903 6.64524 15.224 5.85945 12.9033L5.74427 12.9129L2.71262 15.2122L2.67297 15.3202C4.28803 18.4644 7.60548 20.6248 11.4468 20.6248Z" fill="#34CAA5"/>
<path d="M5.86006 12.9038C5.65272 12.305 5.53273 11.6632 5.53273 11.0002C5.53273 10.3371 5.65272 9.69549 5.84915 9.09661L5.84366 8.96906L2.774 6.63281L2.67357 6.67963C2.00792 7.98437 1.62598 9.44953 1.62598 11.0002C1.62598 12.5509 2.00792 14.016 2.67357 15.3207L5.86006 12.9038Z" fill="#FDCF24"/>
<path d="M11.4468 5.09664C13.291 5.09664 14.5351 5.87733 15.2444 6.52974L18.0162 3.8775C16.3139 2.32681 14.0986 1.375 11.4468 1.375C7.60551 1.375 4.28804 3.53526 2.67297 6.6794L5.84856 9.09638C6.64526 6.77569 8.84961 5.09664 11.4468 5.09664Z" fill="#EB4335"/>
</svg>
