<svg width="92" height="31" viewBox="0 0 92 31" fill="none" xmlns="http://www.w3.org/2000/svg">
<path d="M5.88427 23.816C5.18161 23.7707 4.55827 23.5553 4.01427 23.17C3.49294 22.7847 2.93761 22.388 2.34827 21.98C1.96294 21.5947 1.65694 21.1867 1.43027 20.756C1.20361 20.3027 1.02227 19.7133 0.886274 18.988C0.795607 18.5573 0.795607 18.0133 0.886274 17.356C0.97694 16.6987 1.12427 16.0413 1.32827 15.384C1.53227 14.704 1.72494 14.16 1.90627 13.752C2.17827 13.1173 2.51827 12.4373 2.92627 11.712C3.35694 10.964 3.77627 10.2613 4.18427 9.604C4.61494 8.924 4.95494 8.38 5.20427 7.972C5.36294 7.81333 5.43094 7.734 5.40827 7.734C5.40827 7.71133 5.40827 7.7 5.40827 7.7C5.40827 7.58667 5.52161 7.30333 5.74827 6.85C5.99761 6.374 6.21294 5.95467 6.39427 5.592C6.73427 5.22933 6.92694 4.93467 6.97227 4.708C7.01761 4.48133 6.98361 4.3 6.87027 4.164C6.82494 4.07333 6.90427 3.91467 7.10827 3.688C7.31227 3.46133 7.61827 3.20067 8.02627 2.906C8.43427 2.61133 8.89894 2.31667 9.42027 2.022C9.96427 1.59133 10.4856 1.36467 10.9843 1.342C11.5056 1.29667 11.8116 1.39867 11.9023 1.648C11.9023 1.716 12.0269 1.73867 12.2763 1.716C12.5483 1.67067 12.8543 1.614 13.1943 1.546C13.5569 1.45533 13.8743 1.38733 14.1463 1.342C14.2596 1.206 14.5203 1.104 14.9283 1.036C15.3589 0.945332 15.8576 0.865999 16.4243 0.797998C16.7189 0.820666 17.0023 0.832 17.2743 0.832C17.5689 0.809332 17.8069 0.786665 17.9883 0.763999C18.1923 0.741332 18.2943 0.729999 18.2943 0.729999C18.4529 0.684666 18.6343 0.707333 18.8383 0.797998C19.0649 0.888665 19.2689 1.138 19.4503 1.546C19.6089 1.954 19.5523 2.26 19.2803 2.464C19.0309 2.668 18.4416 2.82667 17.5123 2.94C16.8323 3.03067 16.2429 3.11 15.7443 3.178C15.2456 3.22333 14.7243 3.29133 14.1803 3.382C13.6363 3.45 12.9676 3.57467 12.1743 3.756C11.6076 3.86933 11.1429 4.00533 10.7803 4.164C10.4176 4.3 10.1003 4.51533 9.82827 4.81C9.55627 5.082 9.25027 5.47867 8.91027 6C8.75161 6.11333 8.54761 6.408 8.29827 6.884C8.04894 7.36 7.79961 7.836 7.55027 8.312C6.91561 9.196 6.36027 9.96667 5.88427 10.624C5.43094 11.2587 5.24961 11.6327 5.34027 11.746C5.34027 11.746 5.46494 11.78 5.71427 11.848C5.96361 11.916 6.13361 11.95 6.22427 11.95C6.45094 11.8367 6.72294 11.7573 7.04027 11.712C7.38027 11.6667 7.65227 11.6213 7.85627 11.576C9.26161 11.2133 10.3609 10.93 11.1543 10.726C11.9703 10.522 12.5823 10.3747 12.9903 10.284C13.4209 10.1707 13.7496 10.1027 13.9763 10.08C14.2936 9.83067 14.5996 9.78533 14.8943 9.944C15.2116 10.1027 15.4609 10.352 15.6423 10.692C15.7556 10.9413 15.7556 11.1567 15.6423 11.338C15.5516 11.5193 15.2683 11.7007 14.7923 11.882C14.3389 12.0633 13.6589 12.2787 12.7523 12.528C11.8456 12.7773 10.6556 13.106 9.18227 13.514C7.93561 13.8767 6.87027 14.092 5.98627 14.16C5.10227 14.228 4.68294 14.0353 4.72827 13.582C4.56961 13.4913 4.38827 13.6047 4.18427 13.922C4.00294 14.2167 3.82161 14.6247 3.64027 15.146C3.45894 15.6673 3.30027 16.2227 3.16427 16.812C3.05094 17.4013 2.97161 17.9567 2.92627 18.478C2.90361 18.9767 2.93761 19.3507 3.02827 19.6C3.20961 20.1213 3.44761 20.5407 3.74227 20.858C4.03694 21.1527 4.56961 21.4133 5.34027 21.64C5.79361 21.6627 6.23561 21.6967 6.66627 21.742C7.09694 21.7873 7.58427 21.6967 8.12827 21.47C9.46561 21.2433 10.5196 21.0053 11.2903 20.756C12.0609 20.5067 12.5029 20.3367 12.6163 20.246C12.7976 20.1553 12.9109 20.11 12.9563 20.11C13.0243 20.0873 13.1149 20.076 13.2283 20.076C13.1603 20.1893 13.1829 20.2007 13.2963 20.11C13.4323 19.9967 13.6136 19.8267 13.8403 19.6C14.0896 19.3733 14.4183 19.158 14.8263 18.954C15.2343 18.75 15.5969 18.5913 15.9143 18.478C16.2543 18.3647 16.4356 18.3647 16.4583 18.478C16.5943 18.7047 16.5716 19.022 16.3903 19.43C16.2089 19.8153 15.8803 20.246 15.4043 20.722C14.9283 21.1753 14.3163 21.6173 13.5683 22.048C12.3669 22.6827 11.0636 23.1247 9.65827 23.374C8.25294 23.646 6.99494 23.7933 5.88427 23.816ZM31.4624 21.436C31.009 21.436 30.635 21.3453 30.3404 21.164C30.0457 20.96 29.7964 20.6313 29.5924 20.178C29.5017 19.8607 29.4224 19.5093 29.3544 19.124C29.309 18.716 29.2864 18.342 29.2864 18.002C29.2864 17.6393 29.3204 17.4013 29.3884 17.288C29.479 17.1973 29.513 17.0387 29.4904 16.812C29.4904 16.5627 29.4904 16.302 29.4904 16.03C29.4677 15.5767 29.3544 15.3273 29.1504 15.282C28.969 15.214 28.697 15.282 28.3344 15.486C27.9264 15.7353 27.3937 16.0753 26.7364 16.506C26.079 16.914 25.3877 17.3673 24.6624 17.866C23.9597 18.3647 23.291 18.886 22.6564 19.43C22.1577 19.974 21.8517 20.3933 21.7384 20.688C21.6477 20.96 21.5117 21.096 21.3304 21.096C21.149 21.1867 20.9904 21.198 20.8544 21.13C20.741 21.0393 20.571 20.9033 20.3444 20.722C20.1857 20.5407 20.027 20.3707 19.8684 20.212C19.7097 20.0307 19.6077 19.8947 19.5624 19.804C19.5624 19.6907 19.5964 19.4527 19.6644 19.09C19.7324 18.7273 19.8117 18.3647 19.9024 18.002C20.0157 17.6393 20.095 17.4013 20.1404 17.288C20.2537 17.288 20.3444 17.1747 20.4124 16.948C20.503 16.7213 20.639 16.472 20.8204 16.2C20.8657 15.928 20.979 15.5653 21.1604 15.112C21.3644 14.636 21.5457 14.2167 21.7044 13.854C22.0217 13.31 22.237 12.8567 22.3504 12.494C22.4864 12.1313 22.577 11.678 22.6224 11.134C22.5997 11.0433 22.6224 10.964 22.6904 10.896C22.7584 10.8053 22.8377 10.76 22.9284 10.76C23.1097 10.5787 23.325 10.5333 23.5744 10.624C23.8237 10.692 24.0504 10.862 24.2544 11.134C24.6624 11.678 24.821 12.2447 24.7304 12.834C24.6624 13.4007 24.2997 14.2167 23.6424 15.282C23.4837 15.6447 23.359 15.928 23.2684 16.132C23.2004 16.3133 23.1664 16.4607 23.1664 16.574C23.1664 16.574 23.2797 16.4947 23.5064 16.336C23.7557 16.1773 24.0277 15.996 24.3224 15.792C24.6397 15.5653 24.889 15.3953 25.0704 15.282C25.1837 15.1687 25.4444 14.9647 25.8524 14.67C26.2604 14.3753 26.691 14.092 27.1444 13.82C27.6204 13.5253 27.9717 13.3553 28.1984 13.31C28.3797 13.2193 28.5724 13.14 28.7764 13.072C28.9804 12.9813 29.1277 12.936 29.2184 12.936C29.3997 12.936 29.6264 13.038 29.8984 13.242C30.193 13.4233 30.465 13.65 30.7144 13.922C30.9637 14.1713 31.111 14.3867 31.1564 14.568C31.1564 14.6587 31.1564 14.7493 31.1564 14.84C31.179 14.9307 31.2017 15.0213 31.2244 15.112C31.315 15.4067 31.3604 15.8033 31.3604 16.302C31.383 16.8007 31.3717 17.254 31.3264 17.662C31.281 18.07 31.2017 18.308 31.0884 18.376C31.0884 18.376 31.0884 18.41 31.0884 18.478C31.111 18.5233 31.1677 18.546 31.2584 18.546C31.2584 18.6367 31.2584 18.6933 31.2584 18.716C31.145 18.716 31.0997 18.818 31.1224 19.022C31.145 19.2033 31.213 19.4073 31.3264 19.634C31.4624 19.8607 31.5984 20.042 31.7344 20.178C32.0064 20.45 32.1197 20.7107 32.0744 20.96C32.029 21.1867 31.825 21.3453 31.4624 21.436ZM38.303 22.218C37.8043 22.218 37.4303 22.1953 37.181 22.15C36.9317 22.1047 36.739 22.0367 36.603 21.946C36.467 21.8553 36.3083 21.7307 36.127 21.572C36.0363 21.3907 35.923 21.198 35.787 20.994C35.651 20.79 35.5377 20.6427 35.447 20.552C35.3563 20.212 35.311 19.77 35.311 19.226C35.3337 18.682 35.4017 18.0927 35.515 17.458C35.651 16.8233 35.8323 16.234 36.059 15.69C36.1497 15.5087 36.229 15.3273 36.297 15.146C36.365 14.9647 36.399 14.874 36.399 14.874C36.399 14.7607 36.535 14.4887 36.807 14.058C37.1017 13.6273 37.419 13.174 37.759 12.698C38.1217 12.222 38.4163 11.882 38.643 11.678C38.8017 11.4967 39.0397 11.304 39.357 11.1C39.697 10.896 39.9917 10.7487 40.241 10.658C40.4903 10.5673 40.7397 10.488 40.989 10.42C41.261 10.352 41.567 10.318 41.907 10.318C42.2243 10.318 42.519 10.386 42.791 10.522C43.063 10.658 43.3237 10.896 43.573 11.236C43.981 11.644 44.2077 12.052 44.253 12.46C44.321 12.8453 44.3097 13.242 44.219 13.65C44.1057 14.1033 43.9583 14.4547 43.777 14.704C43.5957 14.9307 43.3917 15.0327 43.165 15.01C42.9383 14.9873 42.6777 14.8173 42.383 14.5C42.2923 14.3187 42.247 14.1713 42.247 14.058C42.247 13.922 42.2923 13.7293 42.383 13.48C42.4737 13.1627 42.4737 12.834 42.383 12.494C42.2923 12.154 42.145 11.984 41.941 11.984C41.6463 11.984 41.3177 12.12 40.955 12.392C40.615 12.6413 40.2637 12.9587 39.901 13.344C39.7423 13.5253 39.5157 13.8087 39.221 14.194C38.949 14.5567 38.677 14.9647 38.405 15.418C38.133 15.8487 37.9063 16.268 37.725 16.676C37.4757 17.424 37.2717 18.0247 37.113 18.478C36.977 18.9313 36.909 19.158 36.909 19.158C36.909 19.2487 36.9317 19.3393 36.977 19.43C37.045 19.498 37.079 19.5773 37.079 19.668C37.079 19.94 37.2377 20.1553 37.555 20.314C37.8043 20.4727 38.099 20.5633 38.439 20.586C38.779 20.586 39.1983 20.4727 39.697 20.246C40.0597 20.0647 40.3997 19.8267 40.717 19.532C41.057 19.2373 41.4083 18.9767 41.771 18.75C42.0203 18.5913 42.213 18.4553 42.349 18.342C42.5077 18.2287 42.587 18.2173 42.587 18.308C42.587 18.3987 42.621 18.444 42.689 18.444C42.757 18.444 42.8363 18.3987 42.927 18.308C43.063 18.1267 43.2103 18.0133 43.369 17.968C43.5277 17.9 43.6637 17.8773 43.777 17.9C43.913 17.9 43.981 17.934 43.981 18.002C43.9357 18.206 43.981 18.376 44.117 18.512C44.117 18.6027 44.083 18.7273 44.015 18.886C43.9697 19.022 43.9017 19.1353 43.811 19.226C43.6977 19.3847 43.5277 19.566 43.301 19.77C43.097 19.974 42.9043 20.1553 42.723 20.314C42.5417 20.45 42.451 20.518 42.451 20.518C42.3603 20.4953 42.2697 20.518 42.179 20.586C42.111 20.654 42.0317 20.7333 41.941 20.824C41.7597 20.9827 41.5897 21.1073 41.431 21.198C41.2723 21.266 41.1477 21.3 41.057 21.3C40.8983 21.3907 40.7737 21.4473 40.683 21.47C40.615 21.4927 40.581 21.5493 40.581 21.64C40.3543 21.8667 40.071 22.0253 39.731 22.116C39.4137 22.184 38.9377 22.218 38.303 22.218ZM46.8909 21.776C46.8003 21.5947 46.6869 21.4587 46.5509 21.368C46.4149 21.2547 46.3469 21.1527 46.3469 21.062C46.3469 20.9713 46.3356 20.8807 46.3129 20.79C46.3129 20.6767 46.2676 20.5747 46.1769 20.484C46.0636 20.348 46.0749 20.042 46.2109 19.566C46.3469 19.0673 46.5736 18.4667 46.8909 17.764C47.2083 17.0387 47.5823 16.2793 48.0129 15.486C48.1943 15.3047 48.3756 15.0667 48.5569 14.772C48.7383 14.4773 48.8743 14.2847 48.9649 14.194C48.9649 14.1033 48.9989 14.024 49.0669 13.956C49.1349 13.8653 49.2143 13.82 49.3049 13.82V13.616C49.3049 13.5027 49.4069 13.31 49.6109 13.038C49.8376 12.766 50.1096 12.4713 50.4269 12.154C50.7443 11.814 51.0729 11.4967 51.4129 11.202C51.7529 10.8847 52.0363 10.658 52.2629 10.522C52.7389 10.2047 53.2263 10.012 53.7249 9.944C54.2463 9.876 54.6883 9.98933 55.0509 10.284C55.1189 10.352 55.2323 10.4653 55.3909 10.624C55.5496 10.7827 55.7309 10.964 55.9349 11.168C56.1616 11.3493 56.3883 11.542 56.6149 11.746L57.8729 12.868L57.2609 14.568C56.9663 15.4747 56.8869 16.268 57.0229 16.948C57.1816 17.628 57.4083 18.2173 57.7029 18.716C57.8163 18.9653 58.0429 19.2033 58.3829 19.43C58.7456 19.6567 59.0856 19.7927 59.4029 19.838C59.5843 19.8607 59.7543 19.9287 59.9129 20.042C60.0716 20.1553 60.1509 20.3367 60.1509 20.586C60.1509 20.8127 60.1056 20.994 60.0149 21.13C59.9243 21.266 59.7656 21.3567 59.5389 21.402C58.7909 21.4927 58.0883 21.3113 57.4309 20.858C56.7963 20.4047 56.2069 19.6567 55.6629 18.614C55.5723 18.478 55.4476 18.2287 55.2889 17.866C55.1529 17.4807 55.0736 17.2313 55.0509 17.118C54.9603 17.2313 54.7903 17.4467 54.5409 17.764C54.2916 18.0587 54.0989 18.274 53.9629 18.41C52.3536 20.042 50.9596 21.1413 49.7809 21.708C48.6249 22.252 47.6616 22.2747 46.8909 21.776ZM48.1149 19.872C48.1149 20.0307 48.3529 20.0307 48.8289 19.872C49.3276 19.6907 49.8603 19.3733 50.4269 18.92C51.1976 18.2627 51.9683 17.5373 52.7389 16.744C53.5323 15.9507 54.1669 15.214 54.6429 14.534L55.3909 13.31C55.1643 12.7887 54.9149 12.4373 54.6429 12.256C54.3936 12.052 54.1783 11.95 53.9969 11.95C53.7023 11.95 53.2603 12.222 52.6709 12.766C52.1043 13.31 51.4923 14.0353 50.8349 14.942C50.1776 15.8487 49.5543 16.846 48.9649 17.934C48.7383 18.3873 48.5343 18.8293 48.3529 19.26C48.1943 19.668 48.1149 19.872 48.1149 19.872ZM63.0927 21.334C62.8434 21.1753 62.6167 20.9713 62.4127 20.722C62.2087 20.45 62.1067 20.11 62.1067 19.702C62.1067 19.4753 62.1521 19.09 62.2427 18.546C62.3334 18.002 62.4581 17.39 62.6167 16.71C62.7754 16.03 62.9341 15.3953 63.0927 14.806C63.3194 14.398 63.5121 13.99 63.6707 13.582C63.8294 13.174 63.9087 12.9247 63.9087 12.834C63.9541 12.562 64.0107 12.2447 64.0787 11.882C64.1694 11.5193 64.2601 11.1907 64.3507 10.896C64.4414 10.6013 64.5094 10.4313 64.5547 10.386C64.6681 10.2727 64.8041 10.2047 64.9627 10.182C65.1214 10.1367 65.2801 10.1593 65.4387 10.25C65.6201 10.318 65.7561 10.4653 65.8467 10.692C66.0961 10.964 66.2207 11.2927 66.2207 11.678C66.2207 12.0407 66.0961 12.5847 65.8467 13.31C65.6427 13.7633 65.4387 14.296 65.2347 14.908C65.0307 15.52 64.8494 16.0867 64.6907 16.608C64.5547 17.1067 64.4754 17.4467 64.4527 17.628L63.7727 17.832C64.1581 17.4693 64.5207 17.0953 64.8607 16.71C65.2007 16.302 65.4501 15.9847 65.6087 15.758C65.9941 15.2367 66.3227 14.806 66.5947 14.466C66.8894 14.1033 67.2634 13.6727 67.7167 13.174C68.1701 12.6527 68.6121 12.3353 69.0427 12.222C69.4961 12.086 69.8474 12.018 70.0967 12.018C70.5954 12.1087 70.9921 12.3693 71.2867 12.8C71.6041 13.208 71.8081 13.82 71.8987 14.636C71.8987 14.9533 71.8647 15.3273 71.7967 15.758C71.7514 16.1887 71.7287 16.404 71.7287 16.404C71.7287 16.404 71.9101 16.166 72.2727 15.69C72.6581 15.214 73.1681 14.6927 73.8027 14.126C74.2334 13.8087 74.6527 13.6273 75.0607 13.582C75.4687 13.514 75.8314 13.65 76.1487 13.99C76.7381 14.3073 77.1234 14.7947 77.3047 15.452C77.4861 16.0867 77.5314 16.9027 77.4407 17.9C77.3727 18.4893 77.3614 18.9313 77.4067 19.226C77.4521 19.498 77.5201 19.77 77.6107 20.042C77.7921 20.1327 77.8261 20.3253 77.7127 20.62C77.5994 20.892 77.4634 21.028 77.3047 21.028C77.0781 21.028 76.8174 20.9827 76.5227 20.892C76.2507 20.8013 76.0014 20.654 75.7747 20.45C75.5707 20.2233 75.4687 19.9173 75.4687 19.532V17.424C75.4687 16.9253 75.4461 16.5173 75.4007 16.2C75.3781 15.8827 75.3214 15.69 75.2307 15.622C74.9814 15.486 74.6187 15.6333 74.1427 16.064C73.6667 16.4947 73.1567 17.0727 72.6127 17.798C72.0687 18.5233 71.5587 19.2713 71.0827 20.042C70.6521 20.7447 70.3801 21.1527 70.2667 21.266C70.1761 21.3567 70.0061 21.3227 69.7567 21.164C69.2581 21.0053 68.9407 20.79 68.8047 20.518C68.6914 20.2233 68.6801 19.8947 68.7707 19.532C68.8841 19.1467 69.0201 18.6253 69.1787 17.968C69.3601 17.3107 69.5301 16.676 69.6887 16.064C69.8474 15.4293 69.9494 14.976 69.9947 14.704C69.9041 14.5227 69.7454 14.466 69.5187 14.534C69.3147 14.5793 69.0994 14.6813 68.8727 14.84C68.6007 15.0213 68.2721 15.3613 67.8867 15.86C67.5014 16.3587 67.1047 16.9367 66.6967 17.594C66.4247 18.0247 66.1414 18.4553 65.8467 18.886C65.5521 19.294 65.2801 19.6567 65.0307 19.974C64.7814 20.2913 64.5661 20.5293 64.3847 20.688C64.0674 21.1867 63.8521 21.4587 63.7387 21.504C63.6254 21.5493 63.4101 21.4927 63.0927 21.334ZM79.1941 30.616C79.1035 30.616 78.9901 30.616 78.8541 30.616C78.7181 30.6387 78.5935 30.548 78.4801 30.344C78.3895 30.2307 78.3328 30.0607 78.3101 29.834C78.3101 29.6073 78.3668 29.1993 78.4801 28.61C78.5935 28.2247 78.6841 27.8393 78.7521 27.454C78.8201 27.0913 78.8541 26.8193 78.8541 26.638C78.8541 26.5473 78.8768 26.366 78.9221 26.094C78.9901 25.8447 79.0241 25.6633 79.0241 25.55C79.1375 25.3687 79.2281 25.1193 79.2961 24.802C79.3641 24.4847 79.3981 24.2013 79.3981 23.952C79.3981 23.68 79.5341 23.4307 79.8061 23.204C79.8061 23.0227 79.8401 22.796 79.9081 22.524C79.9988 22.252 80.0441 22.0707 80.0441 21.98C80.1121 21.6627 80.2595 21.1073 80.4861 20.314C80.7355 19.498 81.0301 18.58 81.3701 17.56C81.7328 16.54 82.0841 15.5427 82.4241 14.568C82.7641 13.5933 83.0701 12.766 83.3421 12.086C83.6141 11.4513 83.7955 10.9073 83.8861 10.454C83.9995 9.978 84.0561 9.62667 84.0561 9.4C84.0561 9.30933 84.0788 9.24133 84.1241 9.196C84.1695 9.128 84.2715 9.00333 84.4301 8.822C84.6568 8.59533 84.8495 8.52733 85.0081 8.618C85.1895 8.70867 85.4048 8.84467 85.6541 9.026C85.8355 9.32067 85.9601 9.57 86.0281 9.774C86.1188 9.978 86.1188 10.3293 86.0281 10.828C86.0281 11.168 85.9715 11.4627 85.8581 11.712C85.7448 11.9613 85.6428 12.154 85.5521 12.29C85.4615 12.4033 85.4388 12.4487 85.4841 12.426C86.4135 11.9953 87.2295 11.7687 87.9321 11.746C88.6575 11.7007 89.2581 11.8253 89.7341 12.12C90.2328 12.392 90.6068 12.7773 90.8561 13.276C91.1055 13.7747 91.2301 14.3527 91.2301 15.01C91.2301 15.282 91.1735 15.6107 91.0601 15.996C90.9468 16.3587 90.7995 16.6987 90.6181 17.016C90.4595 17.3107 90.3121 17.526 90.1761 17.662C90.0855 17.662 89.9948 17.7413 89.9041 17.9C89.8135 18.036 89.7228 18.1947 89.6321 18.376C89.4508 18.6027 89.1561 18.8633 88.7481 19.158C88.3628 19.43 87.9775 19.6567 87.5921 19.838C87.2068 19.9967 86.9235 20.042 86.7421 19.974C86.7421 19.974 86.7081 19.9853 86.6401 20.008C86.5948 20.008 86.5721 20.0647 86.5721 20.178C86.5721 20.2233 86.3908 20.3253 86.0281 20.484C85.6655 20.62 85.2461 20.756 84.7701 20.892C84.2941 21.0053 83.8748 21.062 83.5121 21.062C83.0361 21.062 82.6961 20.9713 82.4921 20.79C82.4468 20.8353 82.3901 20.9033 82.3221 20.994C82.2768 21.0847 82.2541 21.164 82.2541 21.232C82.2541 21.368 82.1975 21.6287 82.0841 22.014C81.9935 22.3767 81.8801 22.728 81.7441 23.068C81.6081 23.408 81.4835 23.578 81.3701 23.578C81.3701 23.578 81.3475 23.612 81.3021 23.68C81.2568 23.748 81.2795 23.8387 81.3701 23.952C81.3701 23.952 81.3588 24.0767 81.3361 24.326C81.3361 24.598 81.2795 24.8247 81.1661 25.006C81.1661 25.1873 81.1321 25.4593 81.0641 25.822C80.9961 26.1847 80.9168 26.4567 80.8261 26.638C80.8261 26.91 80.7808 27.1707 80.6901 27.42C80.6221 27.692 80.5428 27.828 80.4521 27.828C80.3615 27.8507 80.3048 27.9867 80.2821 28.236C80.2595 28.508 80.2481 28.7007 80.2481 28.814C80.2255 29.3807 80.1121 29.8227 79.9081 30.14C79.7041 30.4573 79.4661 30.616 79.1941 30.616ZM83.3081 19.26C83.4895 19.26 83.8635 19.1807 84.4301 19.022C84.9968 18.8633 85.5748 18.6707 86.1641 18.444C86.7761 18.1947 87.2295 17.9453 87.5241 17.696C88.1135 17.1747 88.5668 16.5853 88.8841 15.928C89.2241 15.248 89.2015 14.602 88.8161 13.99C88.6348 13.6727 88.3061 13.548 87.8301 13.616C87.3541 13.6613 86.8328 13.8427 86.2661 14.16C85.6995 14.4773 85.1668 14.874 84.6681 15.35C84.3961 15.6447 84.1468 16.0073 83.9201 16.438C83.6935 16.8687 83.5008 17.2993 83.3421 17.73C83.2061 18.1607 83.1268 18.5233 83.1041 18.818C83.0815 19.1127 83.1495 19.26 83.3081 19.26Z" fill="#A03C48"/>
</svg>
