<svg width="16" height="16" viewBox="0 0 16 16" fill="none" xmlns="http://www.w3.org/2000/svg">
<path fill-rule="evenodd" clip-rule="evenodd" d="M13.9383 14.0553H2.06171C1.68137 14.0553 1.37143 13.7454 1.37143 13.365V7.5392H14.6286V13.365C14.6286 13.7454 14.3186 14.0553 13.9383 14.0553ZM2.06171 3.1744H4.29714V4.2944C4.29714 4.67291 4.60434 4.98011 4.98286 4.98011C5.36137 4.98011 5.66857 4.67291 5.66857 4.2944V3.1744H10.3314V4.2944C10.3314 4.67291 10.6386 4.98011 11.0171 4.98011C11.3957 4.98011 11.7029 4.67291 11.7029 4.2944V3.1744H13.9383C14.3186 3.1744 14.6286 3.48343 14.6286 3.86469V6.16777H1.37143V3.86469C1.37143 3.48343 1.68137 3.1744 2.06171 3.1744ZM13.9383 1.80297H11.7029V0.685714C11.7029 0.3072 11.3957 0 11.0171 0C10.6386 0 10.3314 0.3072 10.3314 0.685714V1.80297H5.66857V0.685714C5.66857 0.3072 5.36137 0 4.98286 0C4.60434 0 4.29714 0.3072 4.29714 0.685714V1.80297H2.06171C0.925257 1.80297 0 2.72731 0 3.86469V13.365C0 14.5015 0.925257 15.4267 2.06171 15.4267H13.9383C15.0747 15.4267 16 14.5015 16 13.365V3.86469C16 2.72731 15.0747 1.80297 13.9383 1.80297Z" fill="#747681"/>
</svg>
