<svg width="16" height="16" viewBox="0 0 16 16" fill="none" xmlns="http://www.w3.org/2000/svg">
<path fill-rule="evenodd" clip-rule="evenodd" d="M12.9269 14.5215C13.337 14.5215 13.6711 14.1874 13.6711 13.7774V2.22362C13.6711 1.8126 13.337 1.47847 12.9269 1.47847H2.92263C2.5126 1.47847 2.17847 1.8126 2.17847 2.22362V13.7774C2.17847 14.1874 2.5126 14.5215 2.92263 14.5215H12.9269ZM2.92263 0H12.9269C14.1521 0 15.1496 0.997474 15.1496 2.22362V13.7774C15.1496 15.0025 14.1521 16 12.9269 16H2.92263C1.69747 16 0.699997 15.0025 0.699997 13.7774V2.22362C0.699997 0.997474 1.69747 0 2.92263 0ZM5.10692 4.03258H10.6246C11.0326 4.03258 11.3638 4.36375 11.3638 4.77181C11.3638 5.17987 11.0326 5.51105 10.6246 5.51105H5.10692C4.69886 5.51105 4.36769 5.17987 4.36769 4.77181C4.36769 4.36375 4.69886 4.03258 5.10692 4.03258ZM10.6246 7.47948H5.10692C4.69886 7.47948 4.36769 7.80967 4.36769 8.21871C4.36769 8.62677 4.69886 8.95795 5.10692 8.95795H10.6246C11.0326 8.95795 11.3638 8.62677 11.3638 8.21871C11.3638 7.80967 11.0326 7.47948 10.6246 7.47948ZM5.10692 10.881H10.6246C11.0326 10.881 11.3638 11.2122 11.3638 11.6203C11.3638 12.0283 11.0326 12.3595 10.6246 12.3595H5.10692C4.69886 12.3595 4.36769 12.0283 4.36769 11.6203C4.36769 11.2122 4.69886 10.881 5.10692 10.881Z" fill="#7F8FA4"/>
</svg>
