<svg width="10" height="12" viewBox="0 0 10 12" fill="none" xmlns="http://www.w3.org/2000/svg">
<path fill-rule="evenodd" clip-rule="evenodd" d="M8.573 11.0466H8.2393V8.85997C8.23744 7.68686 7.61971 6.6009 6.61232 5.99976C7.61971 5.39863 8.23744 4.31266 8.2393 3.13955V0.953402H8.573C8.83627 0.953402 9.0497 0.739976 9.0497 0.476701C9.0497 0.213426 8.83627 0 8.573 0H0.476701C0.213426 0 0 0.213426 0 0.476701C0 0.739976 0.213426 0.953402 0.476701 0.953402H0.810392V3.13955C0.812255 4.31266 1.42999 5.39863 2.43737 5.99976C1.42999 6.6009 0.812255 7.68686 0.810392 8.85997V11.0466H0.476701C0.213426 11.0466 0 11.26 0 11.5233C0 11.7866 0.213426 12 0.476701 12H8.573C8.83627 12 9.0497 11.7866 9.0497 11.5233C9.0497 11.26 8.83627 11.0466 8.573 11.0466ZM1.76332 10.8559C2.29913 10.3068 3.54475 9.23799 4.52485 9.23799C5.50495 9.23799 6.75057 10.3068 7.28638 10.8559V11.0466H1.76332V10.8559ZM7.28638 2.30533V0.953402H1.76332V2.30533H7.28638ZM1.77524 3.25873H7.27446C7.21231 4.52421 6.16987 5.51929 4.90287 5.52258H4.14682C2.87982 5.51929 1.83739 4.52421 1.77524 3.25873ZM4.90287 6.47599H4.14682V6.47646C2.8311 6.47804 1.76489 7.54425 1.76332 8.85997V9.56501C2.46502 8.98105 3.51186 8.28411 4.52485 8.28411C5.53784 8.28411 6.58467 8.98105 7.28638 9.56501V8.85949C7.2848 7.54377 6.21859 6.47756 4.90287 6.47599Z" fill="white"/>
</svg>
