<svg width="12" height="12" viewBox="0 0 12 12" fill="none" xmlns="http://www.w3.org/2000/svg">
<path d="M11.375 12H0.598686C0.268041 12 0 11.7319 0 11.4013V0.624931C0 0.294286 0.268041 0.0262451 0.598686 0.0262451H7.78292C8.11357 0.0262451 8.38161 0.294286 8.38161 0.624931C8.38161 0.955577 8.11357 1.22362 7.78292 1.22362H1.19737V10.8026H10.7764V4.21705C10.7764 3.8864 11.0444 3.61836 11.375 3.61836C11.7057 3.61836 11.9737 3.8864 11.9737 4.21705V11.4013C11.9737 11.7319 11.7057 12 11.375 12Z" fill="black"/>
<path fill-rule="evenodd" clip-rule="evenodd" d="M5.58553 7.05485C5.69533 7.15465 5.83827 7.21012 5.98665 7.21051C6.15559 7.21011 6.31649 7.13836 6.42968 7.01294L11.8179 1.02608C11.9766 0.870367 12.0359 0.639511 11.972 0.426549C11.9081 0.213586 11.7314 0.0536021 11.5131 0.011071C11.2949 -0.0314601 11.071 0.0504687 10.9318 0.223839L5.54362 6.2107C5.32268 6.45559 5.34142 6.83305 5.58553 7.05485ZM2.99322 9.60525H8.98008C9.31073 9.60525 9.57877 9.33721 9.57877 9.00657C9.57877 8.67592 9.31073 8.40788 8.98008 8.40788H2.99322C2.66257 8.40788 2.39453 8.67592 2.39453 9.00657C2.39453 9.33721 2.66257 9.60525 2.99322 9.60525Z" fill="black"/>
</svg>
