<svg width="184" height="184" viewBox="0 0 184 184" fill="none" xmlns="http://www.w3.org/2000/svg">
<ellipse cx="13.2035" cy="176.442" rx="5.20352" ry="5.06855" fill="#FDCF24"/>
<path d="M30.1933 180.373V177.063H26.9942V178.031H29.1515C29.0962 178.594 28.5984 179.497 27.28 179.497C26.1552 179.497 25.1226 178.695 25.1226 177.1C25.1226 175.477 26.2289 174.721 27.2892 174.721C28.331 174.721 28.9764 175.348 29.1976 176.086L30.2394 175.69C29.8891 174.611 28.8749 173.698 27.2892 173.698C25.5928 173.698 23.9978 174.952 23.9978 177.1C23.9978 179.257 25.5098 180.511 27.2154 180.511C28.2572 180.511 28.9303 180.023 29.2161 179.543L29.299 180.373H30.1933ZM33.4148 179.553C32.7602 179.553 32.1609 179.055 32.1609 178.123C32.1609 177.192 32.7602 176.713 33.4148 176.713C34.0786 176.713 34.6686 177.192 34.6686 178.123C34.6686 179.064 34.0786 179.553 33.4148 179.553ZM33.4148 175.745C32.0779 175.745 31.0914 176.75 31.0914 178.123C31.0914 179.506 32.0779 180.511 33.4148 180.511C34.7608 180.511 35.7473 179.506 35.7473 178.123C35.7473 176.75 34.7608 175.745 33.4148 175.745ZM38.7538 179.553C38.0992 179.553 37.4999 179.055 37.4999 178.123C37.4999 177.192 38.0992 176.713 38.7538 176.713C39.4176 176.713 40.0076 177.192 40.0076 178.123C40.0076 179.064 39.4176 179.553 38.7538 179.553ZM38.7538 175.745C37.417 175.745 36.4305 176.75 36.4305 178.123C36.4305 179.506 37.417 180.511 38.7538 180.511C40.0998 180.511 41.0863 179.506 41.0863 178.123C41.0863 176.75 40.0998 175.745 38.7538 175.745ZM41.7972 180.622C41.917 181.525 42.7468 182.263 43.9361 182.263C45.6233 182.263 46.241 181.147 46.241 179.949V175.883H45.2084V176.455C45.0148 176.086 44.5815 175.8 43.8808 175.8C42.6454 175.8 41.8064 176.787 41.8064 177.985C41.8064 179.248 42.6822 180.17 43.8808 180.17C44.5354 180.17 44.9871 179.866 45.1807 179.516V179.986C45.1807 180.899 44.7566 181.332 43.9084 181.332C43.2907 181.332 42.8574 180.917 42.7837 180.364L41.7972 180.622ZM44.0559 179.257C43.3553 179.257 42.8851 178.769 42.8851 177.985C42.8851 177.22 43.3737 176.722 44.0559 176.722C44.7197 176.722 45.2084 177.22 45.2084 177.985C45.2084 178.76 44.7382 179.257 44.0559 179.257ZM48.6184 180.373V173.698H47.5489V180.373H48.6184ZM50.7446 177.635C50.7815 177.155 51.1687 176.639 51.8417 176.639C52.5793 176.639 52.9297 177.109 52.9481 177.635H50.7446ZM53.0679 178.806C52.9204 179.248 52.5885 179.589 51.9432 179.589C51.2794 179.589 50.7446 179.101 50.717 178.419H53.9991C54.0083 178.4 54.0268 178.253 54.0268 178.077C54.0268 176.658 53.2155 175.745 51.8325 175.745C50.6985 175.745 49.6475 176.685 49.6475 178.105C49.6475 179.626 50.7262 180.511 51.9432 180.511C53.0218 180.511 53.7317 179.875 53.9715 179.092L53.0679 178.806Z" fill="#747681"/>
<ellipse cx="76.3478" cy="176.442" rx="5.20352" ry="5.06855" fill="#34CAA5"/>
<path d="M90.8749 176.842V174.814H92.0273C92.728 174.814 93.1521 175.21 93.1521 175.837C93.1521 176.455 92.728 176.842 92.0273 176.842H90.8749ZM92.1933 177.819C93.4471 177.819 94.2769 176.98 94.2769 175.828C94.2769 174.685 93.4471 173.836 92.1933 173.836H89.7685V180.373H90.8749V177.819H92.1933ZM95.6451 177.635C95.682 177.155 96.0692 176.639 96.7422 176.639C97.4798 176.639 97.8301 177.109 97.8486 177.635H95.6451ZM97.9684 178.806C97.8209 179.248 97.489 179.589 96.8436 179.589C96.1798 179.589 95.6451 179.101 95.6174 178.419H98.8996C98.9088 178.4 98.9272 178.253 98.9272 178.077C98.9272 176.658 98.1159 175.745 96.733 175.745C95.599 175.745 94.548 176.685 94.548 178.105C94.548 179.626 95.6267 180.511 96.8436 180.511C97.9223 180.511 98.6322 179.875 98.8719 179.092L97.9684 178.806ZM102.577 175.855C102.531 175.846 102.42 175.828 102.291 175.828C101.701 175.828 101.203 176.114 100.991 176.602V175.883H99.9492V180.373H101.019V178.234C101.019 177.395 101.397 176.916 102.226 176.916C102.337 176.916 102.457 176.925 102.577 176.943V175.855ZM103.082 179.156C103.137 179.663 103.635 180.511 104.935 180.511C106.078 180.511 106.632 179.755 106.632 179.073C106.632 178.409 106.189 177.893 105.341 177.709L104.659 177.57C104.382 177.515 104.207 177.34 104.207 177.1C104.207 176.824 104.474 176.584 104.852 176.584C105.452 176.584 105.645 176.999 105.682 177.257L106.586 176.999C106.512 176.556 106.106 175.745 104.852 175.745C103.921 175.745 103.202 176.409 103.202 177.192C103.202 177.81 103.617 178.326 104.41 178.501L105.074 178.649C105.433 178.723 105.599 178.907 105.599 179.147C105.599 179.423 105.369 179.663 104.926 179.663C104.354 179.663 104.05 179.304 104.013 178.898L103.082 179.156ZM109.638 179.553C108.984 179.553 108.384 179.055 108.384 178.123C108.384 177.192 108.984 176.713 109.638 176.713C110.302 176.713 110.892 177.192 110.892 178.123C110.892 179.064 110.302 179.553 109.638 179.553ZM109.638 175.745C108.301 175.745 107.315 176.75 107.315 178.123C107.315 179.506 108.301 180.511 109.638 180.511C110.984 180.511 111.971 179.506 111.971 178.123C111.971 176.75 110.984 175.745 109.638 175.745ZM114.074 177.782C114.074 177.192 114.396 176.722 115.005 176.722C115.678 176.722 115.927 177.165 115.927 177.718V180.373H116.996V177.533C116.996 176.547 116.471 175.754 115.374 175.754C114.876 175.754 114.341 175.966 114.046 176.482V175.883H113.004V180.373H114.074V177.782ZM118.022 179.156C118.022 179.866 118.602 180.511 119.543 180.511C120.271 180.511 120.714 180.143 120.926 179.801C120.926 180.161 120.963 180.345 120.972 180.373H121.968C121.958 180.327 121.912 180.06 121.912 179.654V177.423C121.912 176.529 121.387 175.745 120.004 175.745C118.897 175.745 118.197 176.436 118.114 177.211L119.091 177.432C119.137 176.98 119.451 176.621 120.013 176.621C120.603 176.621 120.861 176.925 120.861 177.303C120.861 177.46 120.787 177.589 120.529 177.626L119.377 177.801C118.612 177.911 118.022 178.354 118.022 179.156ZM119.746 179.672C119.322 179.672 119.091 179.396 119.091 179.092C119.091 178.723 119.358 178.538 119.69 178.483L120.861 178.308V178.511C120.861 179.387 120.345 179.672 119.746 179.672ZM124.275 180.373V173.698H123.205V180.373H124.275Z" fill="#747681"/>
<ellipse cx="146.089" cy="176.442" rx="5.20352" ry="5.06855" fill="white"/>
<path d="M159.161 179.553C158.506 179.553 157.907 179.055 157.907 178.123C157.907 177.192 158.506 176.713 159.161 176.713C159.825 176.713 160.415 177.192 160.415 178.123C160.415 179.064 159.825 179.553 159.161 179.553ZM159.161 175.745C157.824 175.745 156.837 176.75 156.837 178.123C156.837 179.506 157.824 180.511 159.161 180.511C160.507 180.511 161.493 179.506 161.493 178.123C161.493 176.75 160.507 175.745 159.161 175.745ZM163.855 174.509H162.887V175.182C162.887 175.579 162.675 175.883 162.196 175.883H161.965V176.833H162.795V179.092C162.795 179.931 163.311 180.428 164.141 180.428C164.528 180.428 164.731 180.355 164.795 180.327V179.442C164.749 179.451 164.574 179.479 164.427 179.479C164.03 179.479 163.855 179.313 163.855 178.916V176.833H164.786V175.883H163.855V174.509ZM166.829 177.736C166.847 177.165 167.17 176.722 167.76 176.722C168.433 176.722 168.682 177.165 168.682 177.718V180.373H169.751V177.533C169.751 176.547 169.216 175.754 168.11 175.754C167.64 175.754 167.133 175.92 166.829 176.316V173.698H165.759V180.373H166.829V177.736ZM171.8 177.635C171.837 177.155 172.224 176.639 172.897 176.639C173.635 176.639 173.985 177.109 174.003 177.635H171.8ZM174.123 178.806C173.976 179.248 173.644 179.589 172.998 179.589C172.335 179.589 171.8 179.101 171.772 178.419H175.054C175.064 178.4 175.082 178.253 175.082 178.077C175.082 176.658 174.271 175.745 172.888 175.745C171.754 175.745 170.703 176.685 170.703 178.105C170.703 179.626 171.781 180.511 172.998 180.511C174.077 180.511 174.787 179.875 175.027 179.092L174.123 178.806ZM178.732 175.855C178.685 175.846 178.575 175.828 178.446 175.828C177.856 175.828 177.358 176.114 177.146 176.602V175.883H176.104V180.373H177.173V178.234C177.173 177.395 177.551 176.916 178.381 176.916C178.492 176.916 178.612 176.925 178.732 176.943V175.855ZM179.237 179.156C179.292 179.663 179.79 180.511 181.09 180.511C182.233 180.511 182.786 179.755 182.786 179.073C182.786 178.409 182.344 177.893 181.496 177.709L180.813 177.57C180.537 177.515 180.362 177.34 180.362 177.1C180.362 176.824 180.629 176.584 181.007 176.584C181.606 176.584 181.8 176.999 181.837 177.257L182.74 176.999C182.667 176.556 182.261 175.745 181.007 175.745C180.076 175.745 179.357 176.409 179.357 177.192C179.357 177.81 179.772 178.326 180.565 178.501L181.228 178.649C181.588 178.723 181.754 178.907 181.754 179.147C181.754 179.423 181.523 179.663 181.081 179.663C180.509 179.663 180.205 179.304 180.168 178.898L179.237 179.156Z" fill="#747681"/>
<path fill-rule="evenodd" clip-rule="evenodd" d="M98.6455 139.025L98.6455 153.574C107.581 153.574 116.429 151.86 124.685 148.529C132.94 145.198 140.442 140.316 146.76 134.162C153.079 128.007 158.091 120.7 161.51 112.659C164.93 104.618 166.69 95.9989 166.69 87.2949H151.753C151.753 115.865 127.976 139.025 98.6455 139.025Z" fill="#F5F5F5"/>
<path fill-rule="evenodd" clip-rule="evenodd" d="M173.011 57.291C177.056 66.8034 179.138 76.9987 179.138 87.2948H151.753C151.753 87.2948 151.753 87.2948 151.753 87.2947C151.753 58.7251 127.977 35.5648 98.6462 35.5644L98.6462 8.89111C109.217 8.89111 119.683 10.9191 129.449 14.8592C139.215 18.7994 148.088 24.5746 155.562 31.855C163.037 39.1355 168.966 47.7786 173.011 57.291Z" fill="#34CAA5"/>
<path fill-rule="evenodd" clip-rule="evenodd" d="M35.276 25.5681C18.4691 41.939 9.0271 64.1428 9.0271 87.2949H45.5388C45.5388 87.2948 45.5388 87.2948 45.5388 87.2947C45.5388 58.7249 69.3159 35.5645 98.6464 35.5645V0C74.8779 0 52.0829 9.19711 35.276 25.5681Z" fill="#FDCF24"/>
<g filter="url(#filter0_d_514_1079)">
<ellipse cx="98.6465" cy="87.2947" rx="53.1077" ry="51.7303" fill="white"/>
</g>
<path d="M98.6473 75.9785C96.3497 75.9785 94.1036 76.6422 92.1931 77.8856C90.2827 79.129 88.7936 80.8963 87.9143 82.9641C87.0351 85.0318 86.805 87.3071 87.2533 89.5022C87.7015 91.6972 88.808 93.7136 90.4327 95.2961C92.0574 96.8787 94.1274 97.9565 96.3809 98.3931C98.6345 98.8297 100.97 98.6056 103.093 97.7491C105.216 96.8927 107.03 95.4423 108.307 93.5814C109.583 91.7204 110.265 89.5326 110.265 87.2945H98.6473V75.9785Z" fill="#34CAA5"/>
<g filter="url(#filter1_d_514_1079)">
<ellipse cx="152.584" cy="138.216" rx="16.5962" ry="16.1657" fill="white"/>
<path d="M146.574 142.559V135.89H145.504C145.36 136.589 144.701 137.125 143.744 137.145V137.989H145.36V142.559H146.574ZM150.278 138.668C149.619 138.658 149.187 138.246 149.187 137.691C149.187 137.186 149.599 136.744 150.278 136.744C150.957 136.744 151.379 137.186 151.379 137.691C151.379 138.246 150.947 138.658 150.278 138.668ZM150.278 141.674C149.475 141.674 149.032 141.2 149.032 140.655C149.032 140.109 149.475 139.625 150.278 139.625C151.091 139.625 151.533 140.109 151.533 140.655C151.533 141.2 151.091 141.674 150.278 141.674ZM150.278 142.713C151.811 142.713 152.758 141.89 152.758 140.778C152.758 140.017 152.223 139.389 151.523 139.142C152.161 138.905 152.604 138.267 152.604 137.619C152.604 136.507 151.616 135.735 150.278 135.735C148.94 135.735 147.962 136.507 147.962 137.619C147.962 138.277 148.405 138.905 149.043 139.142C148.333 139.389 147.808 140.017 147.808 140.778C147.808 141.89 148.755 142.713 150.278 142.713ZM154.626 137.454C154.626 137.011 154.945 136.703 155.357 136.703C155.768 136.703 156.077 137.011 156.077 137.454C156.077 137.896 155.768 138.215 155.357 138.215C154.945 138.215 154.626 137.896 154.626 137.454ZM153.669 137.454C153.669 138.38 154.441 139.101 155.346 139.101C156.262 139.101 157.045 138.39 157.045 137.454C157.045 136.528 156.262 135.797 155.357 135.797C154.441 135.797 153.669 136.528 153.669 137.454ZM158.928 141.005C158.928 140.562 159.247 140.253 159.659 140.253C160.07 140.253 160.379 140.562 160.379 141.005C160.379 141.447 160.07 141.766 159.659 141.766C159.247 141.766 158.928 141.447 158.928 141.005ZM157.971 141.005C157.971 141.931 158.743 142.651 159.648 142.651C160.564 142.651 161.346 141.941 161.346 141.005C161.346 140.078 160.564 139.348 159.659 139.348C158.743 139.348 157.971 140.078 157.971 141.005ZM155.676 142.559L160.42 135.89H159.35L154.595 142.559H155.676Z" fill="#747681"/>
</g>
<g filter="url(#filter2_d_514_1079)">
<ellipse cx="158.393" cy="29.0983" rx="16.5962" ry="16.1657" fill="white"/>
<path d="M150.89 29.2723C150.88 29.1591 150.86 29.0356 150.86 28.9327C150.86 28.2431 151.24 27.6977 152.023 27.6977C152.774 27.6977 153.144 28.1917 153.144 28.7371C153.144 29.2208 152.887 29.6222 152.29 29.9927L151.189 30.6823C150.026 31.4027 149.625 32.2981 149.604 33.4404H154.431V32.3495H151.127C151.22 32.0202 151.487 31.7835 151.806 31.5879L153.103 30.7852C153.906 30.2912 154.39 29.581 154.39 28.7165C154.39 27.5742 153.515 26.617 152.043 26.617C150.53 26.617 149.666 27.6565 149.666 28.8092C149.666 28.943 149.686 29.0973 149.697 29.19L150.89 29.2723ZM157.694 29.5502C157.036 29.5399 156.604 29.1282 156.604 28.5725C156.604 28.0682 157.015 27.6256 157.694 27.6256C158.374 27.6256 158.796 28.0682 158.796 28.5725C158.796 29.1282 158.363 29.5399 157.694 29.5502ZM157.694 32.5553C156.892 32.5553 156.449 32.0819 156.449 31.5365C156.449 30.991 156.892 30.5073 157.694 30.5073C158.507 30.5073 158.95 30.991 158.95 31.5365C158.95 32.0819 158.507 32.5553 157.694 32.5553ZM157.694 33.5948C159.228 33.5948 160.175 32.7715 160.175 31.66C160.175 30.8984 159.64 30.2706 158.94 30.0236C159.578 29.7869 160.02 29.1488 160.02 28.5004C160.02 27.3889 159.032 26.617 157.694 26.617C156.357 26.617 155.379 27.3889 155.379 28.5004C155.379 29.1591 155.821 29.7869 156.459 30.0236C155.749 30.2706 155.224 30.8984 155.224 31.66C155.224 32.7715 156.171 33.5948 157.694 33.5948ZM162.043 28.3358C162.043 27.8932 162.362 27.5845 162.773 27.5845C163.185 27.5845 163.494 27.8932 163.494 28.3358C163.494 28.7783 163.185 29.0973 162.773 29.0973C162.362 29.0973 162.043 28.7783 162.043 28.3358ZM161.086 28.3358C161.086 29.262 161.857 29.9824 162.763 29.9824C163.679 29.9824 164.461 29.2723 164.461 28.3358C164.461 27.4095 163.679 26.6788 162.773 26.6788C161.857 26.6788 161.086 27.4095 161.086 28.3358ZM166.345 31.8864C166.345 31.4438 166.664 31.1351 167.075 31.1351C167.487 31.1351 167.796 31.4438 167.796 31.8864C167.796 32.3289 167.487 32.648 167.075 32.648C166.664 32.648 166.345 32.3289 166.345 31.8864ZM165.387 31.8864C165.387 32.8126 166.159 33.5331 167.065 33.5331C167.981 33.5331 168.763 32.8229 168.763 31.8864C168.763 30.9601 167.981 30.2294 167.075 30.2294C166.159 30.2294 165.387 30.9601 165.387 31.8864ZM163.092 33.4404L167.837 26.7714H166.767L162.012 33.4404H163.092Z" fill="#747681"/>
</g>
<g filter="url(#filter3_d_514_1079)">
<ellipse cx="25.6233" cy="39.6061" rx="16.5962" ry="16.1657" fill="white"/>
<path d="M16.8345 42.4868H20.0455V43.9482H21.2599V42.4868H22.3817V41.3959H21.2599V37.2792H19.675L16.8345 41.1489V42.4868ZM20.0455 41.3959H17.946L20.0455 38.5245V41.3959ZM27.4975 37.2792H22.5163V38.3599H26.0978C26.0978 38.3599 23.7719 40.2226 23.4837 43.9482H24.7599C25.0584 40.5108 26.9417 38.823 27.4975 38.3599V37.2792ZM29.0118 38.8436C29.0118 38.401 29.3309 38.0923 29.7425 38.0923C30.1542 38.0923 30.463 38.401 30.463 38.8436C30.463 39.2861 30.1542 39.6051 29.7425 39.6051C29.3309 39.6051 29.0118 39.2861 29.0118 38.8436ZM28.0547 38.8436C28.0547 39.7698 28.8266 40.4902 29.7322 40.4902C30.6482 40.4902 31.4304 39.7801 31.4304 38.8436C31.4304 37.9173 30.6482 37.1866 29.7425 37.1866C28.8266 37.1866 28.0547 37.9173 28.0547 38.8436ZM33.3137 42.3942C33.3137 41.9517 33.6328 41.6429 34.0445 41.6429C34.4561 41.6429 34.7649 41.9517 34.7649 42.3942C34.7649 42.8367 34.4561 43.1558 34.0445 43.1558C33.6328 43.1558 33.3137 42.8367 33.3137 42.3942ZM32.3566 42.3942C32.3566 43.3204 33.1285 44.0409 34.0342 44.0409C34.9501 44.0409 35.7323 43.3307 35.7323 42.3942C35.7323 41.4679 34.9501 40.7372 34.0445 40.7372C33.1285 40.7372 32.3566 41.4679 32.3566 42.3942ZM30.0616 43.9482L34.806 37.2792H33.7357L28.9809 43.9482H30.0616Z" fill="#747681"/>
</g>
<defs>
<filter id="filter0_d_514_1079" x="31.8166" y="21.8422" width="133.66" height="130.905" filterUnits="userSpaceOnUse" color-interpolation-filters="sRGB">
<feFlood flood-opacity="0" result="BackgroundImageFix"/>
<feColorMatrix in="SourceAlpha" type="matrix" values="0 0 0 0 0 0 0 0 0 0 0 0 0 0 0 0 0 0 127 0" result="hardAlpha"/>
<feOffset/>
<feGaussianBlur stdDeviation="6.86113"/>
<feColorMatrix type="matrix" values="0 0 0 0 0 0 0 0 0 0 0 0 0 0 0 0 0 0 0.1 0"/>
<feBlend mode="normal" in2="BackgroundImageFix" result="effect1_dropShadow_514_1079"/>
<feBlend mode="normal" in="SourceGraphic" in2="effect1_dropShadow_514_1079" result="shape"/>
</filter>
<filter id="filter1_d_514_1079" x="127.412" y="116.905" width="50.3452" height="49.4844" filterUnits="userSpaceOnUse" color-interpolation-filters="sRGB">
<feFlood flood-opacity="0" result="BackgroundImageFix"/>
<feColorMatrix in="SourceAlpha" type="matrix" values="0 0 0 0 0 0 0 0 0 0 0 0 0 0 0 0 0 0 127 0" result="hardAlpha"/>
<feOffset dy="3.43056"/>
<feGaussianBlur stdDeviation="4.2882"/>
<feColorMatrix type="matrix" values="0 0 0 0 0 0 0 0 0 0 0 0 0 0 0 0 0 0 0.12 0"/>
<feBlend mode="normal" in2="BackgroundImageFix" result="effect1_dropShadow_514_1079"/>
<feBlend mode="normal" in="SourceGraphic" in2="effect1_dropShadow_514_1079" result="shape"/>
</filter>
<filter id="filter2_d_514_1079" x="133.22" y="7.78677" width="50.3452" height="49.4844" filterUnits="userSpaceOnUse" color-interpolation-filters="sRGB">
<feFlood flood-opacity="0" result="BackgroundImageFix"/>
<feColorMatrix in="SourceAlpha" type="matrix" values="0 0 0 0 0 0 0 0 0 0 0 0 0 0 0 0 0 0 127 0" result="hardAlpha"/>
<feOffset dy="3.43056"/>
<feGaussianBlur stdDeviation="4.2882"/>
<feColorMatrix type="matrix" values="0 0 0 0 0 0 0 0 0 0 0 0 0 0 0 0 0 0 0.12 0"/>
<feBlend mode="normal" in2="BackgroundImageFix" result="effect1_dropShadow_514_1079"/>
<feBlend mode="normal" in="SourceGraphic" in2="effect1_dropShadow_514_1079" result="shape"/>
</filter>
<filter id="filter3_d_514_1079" x="0.45069" y="18.2946" width="50.3452" height="49.4844" filterUnits="userSpaceOnUse" color-interpolation-filters="sRGB">
<feFlood flood-opacity="0" result="BackgroundImageFix"/>
<feColorMatrix in="SourceAlpha" type="matrix" values="0 0 0 0 0 0 0 0 0 0 0 0 0 0 0 0 0 0 127 0" result="hardAlpha"/>
<feOffset dy="3.43056"/>
<feGaussianBlur stdDeviation="4.2882"/>
<feColorMatrix type="matrix" values="0 0 0 0 0 0 0 0 0 0 0 0 0 0 0 0 0 0 0.12 0"/>
<feBlend mode="normal" in2="BackgroundImageFix" result="effect1_dropShadow_514_1079"/>
<feBlend mode="normal" in="SourceGraphic" in2="effect1_dropShadow_514_1079" result="shape"/>
</filter>
</defs>
</svg>
