<svg width="148" height="128" viewBox="0 0 148 128" fill="none" xmlns="http://www.w3.org/2000/svg">
<mask id="mask0_1112_6118" style="mask-type:alpha" maskUnits="userSpaceOnUse" x="29" y="1" width="110" height="126">
<path d="M79.9768 2.35829C82.4702 0.901339 85.5554 0.901341 88.0488 2.35829L134.814 29.6838C137.269 31.1182 138.778 33.7478 138.778 36.5911V91.4089C138.778 94.2522 137.269 96.8818 134.814 98.3162L88.0488 125.642C85.5554 127.099 82.4702 127.099 79.9768 125.642L33.2116 98.3162C30.7567 96.8818 29.2476 94.2522 29.2476 91.4089V36.5911C29.2476 33.7478 30.7567 31.1182 33.2116 29.6838L79.9768 2.35829Z" fill="#0CAF60"/>
</mask>
<g mask="url(#mask0_1112_6118)">
<path d="M79.9768 2.35829C82.4702 0.901339 85.5554 0.901341 88.0488 2.35829L134.814 29.6838C137.269 31.1182 138.778 33.7478 138.778 36.5911V91.4089C138.778 94.2522 137.269 96.8818 134.814 98.3162L88.0488 125.642C85.5554 127.099 82.4702 127.099 79.9768 125.642L33.2116 98.3162C30.7567 96.8818 29.2476 94.2522 29.2476 91.4089V36.5911C29.2476 33.7478 30.7567 31.1182 33.2116 29.6838L79.9768 2.35829Z" fill="#34CC9C"/>
<path d="M176.264 26.667H75.3692C72.79 26.667 70.6992 28.783 70.6992 31.3933V100.78C70.6992 103.39 72.79 105.506 75.3692 105.506H176.264C178.843 105.506 180.934 103.39 180.934 100.78V31.3933C180.934 28.783 178.843 26.667 176.264 26.667Z" fill="white"/>
<path d="M172.89 29.3467H78.7775C76.3924 29.3467 74.459 31.3035 74.459 33.7173V97.3354C74.459 99.7492 76.3924 101.706 78.7775 101.706H172.89C175.275 101.706 177.209 99.7492 177.209 97.3354V33.7173C177.209 31.3035 175.275 29.3467 172.89 29.3467Z" fill="#34CC9C"/>
<path d="M183.119 104.764H66.0636C63.7536 104.764 61.8809 106.659 61.8809 108.997V109.455C61.8809 111.793 63.7536 113.688 66.0636 113.688H183.119C185.429 113.688 187.302 111.793 187.302 109.455V108.997C187.302 106.659 185.429 104.764 183.119 104.764Z" fill="white"/>
<path d="M183.119 104.764H66.0636C63.7536 104.764 61.8809 106.659 61.8809 108.997V109.455C61.8809 111.793 63.7536 113.688 66.0636 113.688H183.119C185.429 113.688 187.302 111.793 187.302 109.455V108.997C187.302 106.659 185.429 104.764 183.119 104.764Z" fill="url(#paint0_linear_1112_6118)"/>
<path d="M137.624 104.844H112.18V107.489H137.624V104.844Z" fill="url(#paint1_linear_1112_6118)"/>
</g>
<g filter="url(#filter0_d_1112_6118)">
<path d="M108.251 40.3824V80.2223C108.251 81.6152 107.705 82.9513 106.733 83.9377C105.762 84.9241 104.443 85.4802 103.067 85.4843H22.9341C22.2519 85.4843 21.5763 85.3481 20.9462 85.0835C20.316 84.8189 19.7436 84.4311 19.2617 83.9424C18.7798 83.4536 18.3978 82.8734 18.1378 82.2351C17.8777 81.5967 17.7446 80.9127 17.7461 80.2223V40.3824C17.7461 38.9899 18.2927 37.6544 19.2656 36.6697C20.2386 35.685 21.5582 35.1318 22.9341 35.1318H103.067C104.441 35.1349 105.759 35.6891 106.731 36.6733C107.702 37.6574 108.249 38.9912 108.251 40.3824Z" fill="white"/>
<path d="M85.5918 84.4533L101.401 94.9338V82.1338L85.5918 84.4533Z" fill="white"/>
</g>
<path d="M62.9222 45.348C62.6886 45.4331 62.4315 45.4231 62.205 45.3202C61.9785 45.2173 61.8003 45.0295 61.7079 44.7963L60.7981 42.3498C60.538 41.6817 60.0285 41.1441 59.3798 40.8533C58.7311 40.5625 57.9953 40.5419 57.3316 40.7959C56.668 41.05 56.1299 41.5583 55.8337 42.2108C55.5376 42.8633 55.5072 43.6076 55.7492 44.2827L57.0086 47.6499C57.0288 47.7054 57.0439 47.7627 57.0537 47.8211H55.0612L53.9897 44.9561C53.5842 43.8123 53.6389 42.553 54.1419 41.4496C54.6449 40.3462 55.5561 39.4868 56.6791 39.0568C57.8022 38.6267 59.0472 38.6603 60.146 39.1502C61.2448 39.6402 62.1095 40.5474 62.5537 41.6764L63.4673 44.1191C63.5114 44.236 63.5323 44.3605 63.5288 44.4856C63.5252 44.6107 63.4974 44.7338 63.4467 44.848C63.3961 44.9622 63.3237 45.0651 63.2337 45.1509C63.1437 45.2367 63.0378 45.3037 62.9222 45.348Z" fill="#34CC9C"/>
<path d="M65.8595 47.8438H53.5098V59.3913H65.8595V47.8438Z" fill="url(#paint2_linear_1112_6118)"/>
<path d="M65.8441 47.8213H58.0996V59.3688H65.8441V47.8213Z" fill="url(#paint3_linear_1112_6118)"/>
<path d="M59.3903 53.231C59.3903 53.231 58.1722 52.2037 59.2361 51.3286C60.3 50.4535 61.4918 52.2798 60.364 53.231L61.1572 55.3731H58.4805L59.3903 53.231Z" fill="white"/>
<path d="M93.1372 63.3316H31.8056C30.464 63.3316 29.3785 64.432 29.3785 65.7868V72.506C29.3785 73.8609 30.464 74.9612 31.8056 74.9612H93.1372C94.4787 74.9612 95.5642 73.8609 95.5642 72.506V65.7868C95.5642 64.432 94.4787 63.3316 93.1372 63.3316Z" fill="white" stroke="#CBD5E0" stroke-width="0.2"/>
<path d="M38.9255 71.2653C40.2274 71.2653 41.2827 70.1973 41.2827 68.8797C41.2827 67.5622 40.2274 66.4941 38.9255 66.4941C37.6237 66.4941 36.5684 67.5622 36.5684 68.8797C36.5684 70.1973 37.6237 71.2653 38.9255 71.2653Z" fill="#34CC9C"/>
<path d="M45.2869 71.2653C46.5887 71.2653 47.644 70.1973 47.644 68.8797C47.644 67.5622 46.5887 66.4941 45.2869 66.4941C43.985 66.4941 42.9297 67.5622 42.9297 68.8797C42.9297 70.1973 43.985 71.2653 45.2869 71.2653Z" fill="#34CC9C"/>
<path d="M51.6423 71.2653C52.9442 71.2653 53.9995 70.1973 53.9995 68.8797C53.9995 67.5622 52.9442 66.4941 51.6423 66.4941C50.3405 66.4941 49.2852 67.5622 49.2852 68.8797C49.2852 70.1973 50.3405 71.2653 51.6423 71.2653Z" fill="#34CC9C"/>
<path d="M57.9978 71.2653C59.2996 71.2653 60.355 70.1973 60.355 68.8797C60.355 67.5622 59.2996 66.4941 57.9978 66.4941C56.696 66.4941 55.6406 67.5622 55.6406 68.8797C55.6406 70.1973 56.696 71.2653 57.9978 71.2653Z" fill="#34CC9C"/>
<path d="M64.8591 71.2653C66.161 71.2653 67.2163 70.1973 67.2163 68.8797C67.2163 67.5622 66.161 66.4941 64.8591 66.4941C63.5573 66.4941 62.502 67.5622 62.502 68.8797C62.502 70.1973 63.5573 71.2653 64.8591 71.2653Z" fill="#34CC9C"/>
<path d="M71.2126 71.2653C72.5145 71.2653 73.5698 70.1973 73.5698 68.8797C73.5698 67.5622 72.5145 66.4941 71.2126 66.4941C69.9108 66.4941 68.8555 67.5622 68.8555 68.8797C68.8555 70.1973 69.9108 71.2653 71.2126 71.2653Z" fill="#34CC9C"/>
<path d="M77.5681 71.2653C78.8699 71.2653 79.9253 70.1973 79.9253 68.8797C79.9253 67.5622 78.8699 66.4941 77.5681 66.4941C76.2663 66.4941 75.2109 67.5622 75.2109 68.8797C75.2109 70.1973 76.2663 71.2653 77.5681 71.2653Z" fill="#34CC9C"/>
<path d="M83.9333 71.2653C85.2352 71.2653 86.2905 70.1973 86.2905 68.8797C86.2905 67.5622 85.2352 66.4941 83.9333 66.4941C82.6315 66.4941 81.5762 67.5622 81.5762 68.8797C81.5762 70.1973 82.6315 71.2653 83.9333 71.2653Z" fill="#34CC9C"/>
<path d="M20.9192 31.4074C20.5536 31.4073 20.196 31.2992 19.8902 31.0964C19.5844 30.8937 19.3436 30.6051 19.1974 30.266L15.1372 20.7997C15.0384 20.5704 14.9853 20.3236 14.9808 20.0735C14.9763 19.8234 15.0205 19.5748 15.1109 19.342C15.2013 19.1091 15.3362 18.8966 15.5077 18.7165C15.6793 18.5364 15.8843 18.3923 16.1109 18.2924C16.3375 18.1924 16.5813 18.1387 16.8284 18.1341C17.0756 18.1295 17.3212 18.1743 17.5513 18.2658C17.7813 18.3573 17.9913 18.4938 18.1692 18.6674C18.3472 18.8411 18.4896 19.0485 18.5883 19.2778L22.6448 28.7479C22.7697 29.0376 22.8213 29.3543 22.795 29.6693C22.7687 29.9843 22.6652 30.2877 22.4939 30.552C22.3226 30.8164 22.089 31.0334 21.814 31.1834C21.5391 31.3334 21.2315 31.4117 20.9192 31.4113V31.4074Z" fill="#34CC9C"/>
<path d="M2.69278 44.3854C2.19424 44.4021 1.70959 44.2176 1.34544 43.8726C0.981295 43.5276 0.767476 43.0503 0.751024 42.5458C0.734573 42.0413 0.916837 41.5508 1.25772 41.1822C1.5986 40.8137 2.07018 40.5973 2.56871 40.5806L12.738 39.892C13.2365 39.8582 13.7279 40.0262 14.1041 40.359C14.4802 40.6919 14.7103 41.1623 14.7437 41.6669C14.7771 42.1714 14.6111 42.6687 14.2822 43.0494C13.9533 43.4301 13.4884 43.6629 12.9899 43.6967L2.81684 44.3816L2.69278 44.3854Z" fill="#34CC9C"/>
<path d="M13.5094 35.0228C13.1378 35.0216 12.775 34.9076 12.4681 34.6955L4.0206 28.8971C3.61655 28.6101 3.34027 28.1737 3.25141 27.6823C3.16256 27.1909 3.26828 26.6838 3.54573 26.2706C3.82318 25.8574 4.25009 25.5713 4.73426 25.474C5.21843 25.3766 5.721 25.476 6.13341 25.7505L14.5658 31.549C14.8974 31.778 15.1479 32.1084 15.2805 32.4919C15.4131 32.8753 15.4209 33.2917 15.3029 33.68C15.1848 34.0683 14.947 34.4081 14.6243 34.6497C14.3015 34.8914 13.9109 35.0221 13.5094 35.0228Z" fill="#34CC9C"/>
<defs>
<filter id="filter0_d_1112_6118" x="5.74609" y="27.1318" width="122.505" height="91.8018" filterUnits="userSpaceOnUse" color-interpolation-filters="sRGB">
<feFlood flood-opacity="0" result="BackgroundImageFix"/>
<feColorMatrix in="SourceAlpha" type="matrix" values="0 0 0 0 0 0 0 0 0 0 0 0 0 0 0 0 0 0 127 0" result="hardAlpha"/>
<feOffset dx="4" dy="8"/>
<feGaussianBlur stdDeviation="8"/>
<feColorMatrix type="matrix" values="0 0 0 0 0.0666667 0 0 0 0 0.0941176 0 0 0 0 0.152941 0 0 0 0.08 0"/>
<feBlend mode="normal" in2="BackgroundImageFix" result="effect1_dropShadow_1112_6118"/>
<feBlend mode="normal" in="SourceGraphic" in2="effect1_dropShadow_1112_6118" result="shape"/>
</filter>
<linearGradient id="paint0_linear_1112_6118" x1="124.72" y1="114.012" x2="124.217" y2="95.6671" gradientUnits="userSpaceOnUse">
<stop stop-color="#55C790" stop-opacity="0"/>
<stop offset="0.99" stop-color="#55C790"/>
</linearGradient>
<linearGradient id="paint1_linear_1112_6118" x1="124.965" y1="98.8954" x2="124.794" y2="118.903" gradientUnits="userSpaceOnUse">
<stop stop-color="#0CAF60" stop-opacity="0"/>
<stop offset="0.99" stop-color="#0CAF60"/>
</linearGradient>
<linearGradient id="paint2_linear_1112_6118" x1="76.9762" y1="42.597" x2="42.0604" y2="64.3252" gradientUnits="userSpaceOnUse">
<stop stop-color="#0CAF60" stop-opacity="0"/>
<stop offset="0.99" stop-color="#0CAF60"/>
</linearGradient>
<linearGradient id="paint3_linear_1112_6118" x1="75.1863" y1="45.1732" x2="48.5027" y2="61.7779" gradientUnits="userSpaceOnUse">
<stop stop-color="#0CAF60" stop-opacity="0"/>
<stop offset="0.99" stop-color="#0CAF60"/>
</linearGradient>
</defs>
</svg>
