<svg width="16" height="16" viewBox="0 0 16 16" fill="none" xmlns="http://www.w3.org/2000/svg">
<path fill-rule="evenodd" clip-rule="evenodd" d="M11.7381 5.74387L8.5 1.88894L5.26186 5.74387C5.00001 6.0556 4.54514 6.08718 4.24589 5.81442C3.94663 5.54166 3.9163 5.06784 4.17815 4.75611L7.95815 0.256121C8.245 -0.0853737 8.755 -0.0853737 9.04185 0.256121L12.8218 4.75611C13.0837 5.06784 13.0534 5.54166 12.7541 5.81442C12.4549 6.08718 12 6.0556 11.7381 5.74387ZM11.7381 10.2561L8.5 14.1111L5.26186 10.2561C5.00001 9.9444 4.54514 9.91282 4.24589 10.1856C3.94663 10.4583 3.9163 10.9322 4.17815 11.2439L7.95815 15.7439C8.245 16.0854 8.755 16.0854 9.04185 15.7439L12.8218 11.2439C13.0837 10.9322 13.0534 10.4583 12.7541 10.1856C12.4549 9.91282 12 9.9444 11.7381 10.2561Z" fill="#7F8FA4"/>
<mask id="mask0_214_488" style="mask-type:luminance" maskUnits="userSpaceOnUse" x="4" y="0" width="9" height="16">
<path fill-rule="evenodd" clip-rule="evenodd" d="M11.7381 5.74387L8.5 1.88894L5.26186 5.74387C5.00001 6.0556 4.54514 6.08718 4.24589 5.81442C3.94663 5.54166 3.9163 5.06784 4.17815 4.75611L7.95815 0.256121C8.245 -0.0853737 8.755 -0.0853737 9.04185 0.256121L12.8218 4.75611C13.0837 5.06784 13.0534 5.54166 12.7541 5.81442C12.4549 6.08718 12 6.0556 11.7381 5.74387ZM11.7381 10.2561L8.5 14.1111L5.26186 10.2561C5.00001 9.9444 4.54514 9.91282 4.24589 10.1856C3.94663 10.4583 3.9163 10.9322 4.17815 11.2439L7.95815 15.7439C8.245 16.0854 8.755 16.0854 9.04185 15.7439L12.8218 11.2439C13.0837 10.9322 13.0534 10.4583 12.7541 10.1856C12.4549 9.91282 12 9.9444 11.7381 10.2561Z" fill="white"/>
</mask>
<g mask="url(#mask0_214_488)">
</g>
</svg>
